<svg width="63" height="51" viewBox="0 0 63 51" fill="none" xmlns="http://www.w3.org/2000/svg">
<path d="M15.7063 47.8128C34.575 47.8128 44.8969 31.8657 44.8969 18.0606C44.8969 17.6144 44.8969 17.1618 44.8781 16.7155C46.8877 15.2317 48.6221 13.3946 50 11.2904C48.1229 12.1346 46.1336 12.691 44.0969 12.9415C46.2423 11.6335 47.8491 9.57541 48.6187 7.14982C46.6031 8.36784 44.3969 9.22288 42.0969 9.67751C40.5506 7.99777 38.5044 6.88499 36.2753 6.51155C34.0461 6.1381 31.7585 6.52482 29.7667 7.61181C27.7749 8.69879 26.19 10.4254 25.2577 12.5241C24.3253 14.6229 24.0974 16.9767 24.6094 19.2209C20.5304 19.0123 16.5401 17.9314 12.897 16.0485C9.25397 14.1656 6.03964 11.5226 3.4625 8.29094C2.15419 10.5958 1.75492 13.3221 2.34577 15.9163C2.93662 18.5105 4.4733 20.7781 6.64375 22.2586C5.01731 22.2022 3.42663 21.7567 2 20.9581V21.1015C2.0028 23.516 2.82284 25.8554 4.32148 27.7244C5.82013 29.5933 7.90546 30.8772 10.225 31.3589C9.34457 31.6063 8.43509 31.7296 7.52188 31.7254C6.87807 31.7274 6.23556 31.6666 5.60313 31.5438C6.25871 33.6222 7.53523 35.4394 9.2539 36.7409C10.9726 38.0424 13.0473 38.763 15.1875 38.8017C11.5517 41.7144 7.06063 43.2942 2.4375 43.2865C1.62288 43.29 0.808822 43.2421 0 43.1431C4.69223 46.1944 10.1416 47.8145 15.7063 47.8128Z" fill="black"/>
</svg>
