<svg width="70" height="70" viewBox="0 0 70 70" fill="none" xmlns="http://www.w3.org/2000/svg">
<g clip-path="url(#clip0_201_303)">
<path d="M68.9719 16.8767C68.4088 14.2933 66.5095 12.2334 63.7352 11.1886C61.5804 10.3789 59.3899 10.0124 55.3629 9.7854C52.3293 9.6153 49.5426 9.97929 45.0333 11.1256C39.5873 12.4963 35.2469 14.4056 33.6276 16.0991L33.1897 16.5731L34.1685 20.4402C34.7134 22.5542 35.3567 25.11 35.595 26.1003C36.2402 28.8438 36.2402 28.8438 38.4468 29.4651C43.1559 30.7986 50.336 31.0737 54.9545 30.1141C58.0199 29.4655 60.5068 28.6484 62.6424 27.5801C65.9123 25.9367 68.0104 23.8358 68.8303 21.3723C69.1684 20.3358 69.2527 18.0946 68.9719 16.8767Z" fill="black"/>
<path d="M53.414 48.6434C53.2112 47.1832 52.2002 45.4093 50.7774 44.0287C48.5418 41.8783 44.8491 40.2393 39.9286 39.2165C37.1725 38.6411 35.4943 38.5242 31.8467 38.6555C27.5687 38.8068 24.9836 39.2089 22.1492 40.1503C20.4645 40.7042 20.4248 40.7583 20.0002 42.52C19.8463 43.2058 19.2294 45.8416 18.6384 48.3832L17.5721 52.9822L18.0465 53.4603C20.0666 55.519 26.234 57.7766 32.9265 58.9018C36.8371 59.5593 39.2253 59.575 43.5923 58.9534C49.0847 58.1725 52.3488 55.9657 53.225 52.4553C53.4568 51.5138 53.5453 49.675 53.414 48.6434Z" fill="black"/>
<path d="M33.3882 28.0685C33.1952 27.5607 32.3909 25.0066 31.586 22.3988C30.7946 19.7909 30.1285 17.6379 30.1015 17.6247C30.0202 17.5451 26.9263 18.0329 25.8558 18.2988C21.453 19.3636 18.3488 21.4749 17.1027 24.2378C16.0928 26.4886 16.6153 29.0322 18.4575 30.7573C21.5999 33.6764 27.0301 33.3792 32.5762 29.9952C33.2161 29.5996 33.7354 29.2187 33.7346 29.1382C33.7339 29.0711 33.568 28.5898 33.3882 28.0685Z" fill="black"/>
<path d="M17.048 39.8269C14.955 38.5068 11.9787 37.3836 9.8291 37.0837C5.2884 36.4729 1.448 38.7393 0.85499 42.3944C0.350643 45.5388 2.78508 48.7604 6.96134 50.4615C8.63185 51.142 11.5228 51.7831 13.8055 51.9877L14.477 52.0613L15.6293 47.998C16.2637 45.7645 17.0148 43.1274 17.3266 42.1449L17.8716 40.3416L17.048 39.8269Z" fill="black"/>
</g>
<defs>
<clipPath id="clip0_201_303">
<rect width="68.6837" height="68.6837" fill="white" transform="translate(69) rotate(89.412)"/>
</clipPath>
</defs>
</svg>
