<svg width="69" height="69" viewBox="0 0 69 69" fill="none" xmlns="http://www.w3.org/2000/svg">
<g clip-path="url(#clip0_201_357)">
<path d="M68.7987 51.808C68.2621 54.3971 66.384 56.4764 63.6206 57.5495C61.4742 58.3813 59.2876 58.7703 55.2632 59.0386C52.2314 59.2398 49.4412 58.9044 44.9204 57.8044C39.4606 56.4898 35.1008 54.6251 33.4642 52.9483L33.0215 52.4787L33.9605 48.6019C34.4837 46.4823 35.1008 43.9201 35.3288 42.9274C35.9459 40.1774 35.9459 40.1774 38.1459 39.5335C42.8411 38.1518 50.018 37.803 54.6461 38.7152C57.7181 39.3323 60.2132 40.1237 62.3596 41.1701C65.6462 42.7799 67.7658 44.8592 68.6109 47.3141C68.9597 48.347 69.067 50.5873 68.7987 51.808Z" fill="black"/>
<path d="M52.9155 20.2027C52.7277 21.6649 51.735 23.449 50.3265 24.8442C48.1131 27.0174 44.4374 28.6942 39.5276 29.7674C36.7776 30.3711 35.1007 30.5052 31.4519 30.4113C27.1726 30.304 24.5835 29.9284 21.7396 29.0162C20.0493 28.4796 20.0091 28.4259 19.5664 26.6686C19.4054 25.9844 18.7615 23.3551 18.1444 20.8197L17.031 16.2319L17.5005 15.7489C19.4993 13.6697 25.6433 11.3489 32.3239 10.155C36.2276 9.45741 38.6154 9.41717 42.9886 9.994C48.4887 10.7184 51.7753 12.8916 52.6875 16.3929C52.929 17.3319 53.0363 19.1697 52.9155 20.2027Z" fill="black"/>
<path d="M33.102 40.9824C32.9142 41.4922 32.1362 44.0544 31.3581 46.6703C30.5935 49.2862 29.9496 51.4459 29.9227 51.4594C29.8422 51.5398 26.7434 51.0837 25.6702 50.8289C21.2568 49.8093 18.1311 47.73 16.8567 44.98C15.8238 42.7397 16.3201 40.1909 18.1445 38.447C21.2568 35.4958 26.6898 35.7372 32.2703 39.0641C32.9142 39.4531 33.4374 39.8287 33.4374 39.9092C33.4374 39.9763 33.2764 40.4592 33.102 40.9824Z" fill="black"/>
<path d="M16.642 29.392C14.5627 30.7335 11.5981 31.8872 9.4517 32.2091C4.9175 32.8664 1.05405 30.6396 0.423552 26.9908C-0.11304 23.8517 2.28821 20.6053 6.44679 18.8614C8.11022 18.1638 10.9944 17.4931 13.2749 17.265L13.9457 17.1846L15.1396 21.2358C15.7969 23.4627 16.5749 26.092 16.8969 27.0712L17.4603 28.8688L16.642 29.392Z" fill="black"/>
</g>
<defs>
<clipPath id="clip0_201_357">
<rect width="68.6837" height="68.6837" fill="white" transform="matrix(0 -1 -1 0 69 68.6836)"/>
</clipPath>
</defs>
</svg>
