<svg width="95" height="96" viewBox="0 0 95 96" fill="none" xmlns="http://www.w3.org/2000/svg">
<g clip-path="url(#clip0_201_315)">
<path d="M86.2226 50.4148C87.081 47.9139 86.5255 45.1677 84.6954 42.8355C83.2731 41.0256 81.5904 39.5761 78.2651 37.2934C75.7596 35.5745 73.1883 34.4404 68.7384 33.0817C63.3713 31.4289 58.67 30.8101 56.4072 31.4182L55.7869 31.5964L54.6181 35.4102C53.9875 37.5003 53.212 40.0191 52.902 40.9894C52.0307 43.6697 52.0307 43.6697 53.595 45.3454C56.9296 48.9279 62.9257 52.8872 67.3722 54.4621C70.3295 55.4975 72.8795 56.0889 75.2594 56.2831C78.9075 56.574 81.791 55.8659 83.7697 54.185C84.5964 53.4742 85.8309 51.6017 86.2226 50.4148Z" fill="black"/>
<path d="M56.4448 69.5054C57.0287 68.1517 57.0844 66.1108 56.5841 64.1924C55.788 61.1944 53.4809 57.8778 49.8044 54.4512C47.7464 52.5298 46.3723 51.5594 43.1855 49.7798C39.4495 47.6903 37.0307 46.6934 34.1191 46.0281C32.3915 45.6279 32.3295 45.6535 31.0527 46.9396C30.5654 47.4461 28.6709 49.3796 26.8473 51.2461L23.5503 54.6251L23.708 55.28C24.3673 58.0878 28.4695 63.2168 33.6077 67.65C36.6102 70.2405 38.6439 71.4926 42.7001 73.2261C47.8009 75.4072 51.7362 75.2134 54.3061 72.6665C54.9926 71.9818 56.022 70.4555 56.4448 69.5054Z" fill="black"/>
<path d="M49.9945 41.5273C50.0929 40.993 50.7299 38.3922 51.3943 35.7451C52.0703 33.1049 52.6175 30.9187 52.6013 30.8934C52.5731 30.7832 49.6748 29.5956 48.6216 29.2676C44.3051 27.8945 40.5561 28.0895 38.0576 29.8055C36.0268 31.206 35.1543 33.6517 35.8346 36.0822C37.0072 40.2078 41.804 42.7701 48.301 42.7535C49.0533 42.7471 49.6948 42.6907 49.7359 42.6215C49.7701 42.5638 49.8778 42.0663 49.9945 41.5273Z" fill="black"/>
<path d="M29.9254 43.106C28.8206 40.8918 26.8584 38.3878 25.1762 37.0165C21.6107 34.1392 17.1518 34.0851 14.749 36.9025C12.6869 39.3293 13.0974 43.3464 15.7857 46.9669C16.861 48.4151 19.0002 50.4626 20.8457 51.8215L21.3817 52.2328L24.4743 49.3564C26.1752 47.7759 28.1851 45.9107 28.9614 45.2324L30.3626 43.9733L29.9254 43.106Z" fill="black"/>
</g>
<defs>
<clipPath id="clip0_201_315">
<rect width="68.6837" height="68.6837" fill="white" transform="translate(95 36) rotate(120.655)"/>
</clipPath>
</defs>
</svg>
