<svg width="69" height="69" viewBox="0 0 69 69" fill="none" xmlns="http://www.w3.org/2000/svg">
<g clip-path="url(#clip0_201_369)">
<path d="M68.7987 52.1244C68.2621 54.7135 66.384 56.7928 63.6206 57.8659C61.4742 58.6977 59.2876 59.0867 55.2632 59.355C52.2314 59.5562 49.4412 59.2208 44.9204 58.1208C39.4606 56.8062 35.1008 54.9415 33.4642 53.2647L33.0215 52.7952L33.9605 48.9183C34.4837 46.7987 35.1008 44.2365 35.3288 43.2438C35.9459 40.4938 35.9459 40.4938 38.1459 39.8499C42.8411 38.4682 50.018 38.1194 54.6461 39.0316C57.7181 39.6487 60.2132 40.4401 62.3596 41.4865C65.6462 43.0963 67.7658 45.1756 68.6109 47.6305C68.9597 48.6634 69.067 50.9037 68.7987 52.1244Z" fill="black"/>
<path d="M52.9155 20.5191C52.7277 21.9813 51.735 23.7654 50.3265 25.1606C48.1131 27.3338 44.4374 29.0106 39.5276 30.0838C36.7776 30.6875 35.1007 30.8216 31.4519 30.7277C27.1726 30.6204 24.5835 30.2448 21.7396 29.3326C20.0493 28.796 20.0091 28.7423 19.5664 26.985C19.4054 26.3008 18.7615 23.6715 18.1444 21.1361L17.031 16.5483L17.5005 16.0654C19.4993 13.9861 25.6433 11.6653 32.3239 10.4714C36.2276 9.77382 38.6154 9.73357 42.9886 10.3104C48.4887 11.0348 51.7753 13.208 52.6875 16.7093C52.929 17.6483 53.0363 19.4861 52.9155 20.5191Z" fill="black"/>
<path d="M33.102 41.2988C32.9142 41.8086 32.1362 44.3708 31.3581 46.9867C30.5935 49.6026 29.9496 51.7623 29.9227 51.7758C29.8422 51.8563 26.7434 51.4001 25.6702 51.1453C21.2568 50.1257 18.1311 48.0465 16.8567 45.2964C15.8238 43.0562 16.3201 40.5073 18.1445 38.7634C21.2568 35.8122 26.6898 36.0536 32.2703 39.3805C32.9142 39.7695 33.4374 40.1451 33.4374 40.2256C33.4374 40.2927 33.2764 40.7756 33.102 41.2988Z" fill="black"/>
<path d="M16.642 29.7084C14.5627 31.0499 11.5981 32.2036 9.4517 32.5255C4.9175 33.1828 1.05405 30.956 0.423552 27.3072C-0.11304 24.1681 2.28821 20.9217 6.44679 19.1778C8.11022 18.4802 10.9944 17.8095 13.2749 17.5815L13.9457 17.501L15.1396 21.5522C15.7969 23.7791 16.5749 26.4084 16.8969 27.3877L17.4603 29.1852L16.642 29.7084Z" fill="black"/>
</g>
<defs>
<clipPath id="clip0_201_369">
<rect width="68.6837" height="68.6837" fill="white" transform="matrix(0 -1 -1 0 69 69)"/>
</clipPath>
</defs>
</svg>
