<svg width="80" height="80" viewBox="0 0 80 80" fill="none" xmlns="http://www.w3.org/2000/svg">
<g clip-path="url(#clip0_201_327)">
<path d="M9.32082 63.337C10.291 65.7967 12.4961 67.5253 15.4021 68.1115C17.6589 68.5651 19.8798 68.5756 23.891 68.1537C26.9127 67.835 29.6049 67.0288 33.8719 65.174C39.0276 62.9476 43.0056 60.3669 44.3323 58.4355L44.6884 57.8974L43.1021 54.2374C42.2252 52.2381 41.1802 49.8187 40.7863 48.8794C39.7093 46.2749 39.7093 46.2749 37.4317 46.0155C32.5697 45.4546 25.4384 46.3347 21.0336 48.0227C18.1118 49.1546 15.7882 50.3599 13.8517 51.757C10.8877 53.9036 9.15374 56.3138 8.73959 58.8769C8.57204 59.9542 8.84829 62.1799 9.32082 63.337Z" fill="black"/>
<path d="M19.5822 29.4861C20.0165 30.8948 21.2989 32.4836 22.9247 33.6181C25.4763 35.3821 29.3841 36.4076 34.405 36.6279C37.2177 36.7538 38.8928 36.6 42.4722 35.8853C46.6705 35.0499 49.1576 34.2383 51.8044 32.8545C53.3784 32.0376 53.4089 31.9778 53.5454 30.1708C53.5874 29.4692 53.7735 26.7686 53.9493 24.1651L54.2641 19.4546L53.7191 19.0588C51.395 17.3508 44.9453 16.1116 38.159 16.0743C34.1935 16.0526 31.8338 16.4201 27.623 17.7342C22.327 19.3859 19.4591 22.0876 19.1572 25.6932C19.0794 26.6596 19.2871 28.4888 19.5822 29.4861Z" fill="black"/>
<path d="M42.6488 46.5831C42.9208 47.0533 44.1243 49.4454 45.3371 51.8903C46.5365 54.3375 47.5393 56.3558 47.568 56.3645C47.6611 56.43 50.6367 55.4522 51.6507 55.0181C55.8257 53.2609 58.551 50.6791 59.3378 47.7521C59.9737 45.3685 59.05 42.9416 56.9549 41.5343C53.385 39.157 48.0728 40.3213 43.1412 44.551C42.5731 45.0442 42.1216 45.5035 42.1353 45.5828C42.1468 45.6489 42.3878 46.0973 42.6488 46.5831Z" fill="black"/>
<path d="M56.8914 32.3557C59.1689 33.323 62.2869 33.9542 64.4567 33.9055C69.0366 33.78 72.4638 30.927 72.4629 27.2241C72.4563 24.0395 69.5367 21.2502 65.1417 20.2409C63.3836 19.8372 60.4273 19.668 58.1413 19.8322L57.4667 19.8673L56.9811 24.0628C56.7131 26.3691 56.3947 29.0926 56.2445 30.1124L55.9958 31.9797L56.8914 32.3557Z" fill="black"/>
</g>
<defs>
<clipPath id="clip0_201_327">
<rect width="68.6837" height="68.6837" fill="white" transform="translate(12 80) rotate(-99.8178)"/>
</clipPath>
</defs>
</svg>
