<svg width="97" height="98" viewBox="0 0 97 98" fill="none" xmlns="http://www.w3.org/2000/svg">
<mask id="mask0_201_180" style="mask-type:luminance" maskUnits="userSpaceOnUse" x="0" y="0" width="97" height="98">
<path d="M0 0V97.0517H97V0H0Z" fill="white"/>
</mask>
<g mask="url(#mask0_201_180)">
<path d="M66.6916 28.2326C66.9177 27.7152 67.2409 27.3595 67.6286 27.1654C68.0486 26.9714 68.8241 26.8744 69.9874 26.8744H70.9567V24.6106H62.5556V24.6429H62.5233L50.2125 58.1793L48.7262 54.3308L37.6756 24.6106H25.8171V26.8744H27.1096C28.2728 26.8744 29.0806 26.9714 29.533 27.1978C30.0177 27.4242 30.3408 27.7476 30.5347 28.2003C30.7285 28.6207 30.8255 29.5262 30.8255 30.9169V55.3981C30.8255 56.8533 30.6962 57.8235 30.47 58.3086C30.2439 58.8261 29.8561 59.1818 29.3068 59.4729C28.7575 59.7316 27.8528 59.8609 26.5926 59.8609H25.8171V62.1247H39.0003V59.8609H38.1602C36.9001 59.8609 35.9954 59.7316 35.5107 59.4729C35.026 59.2141 34.6706 58.8261 34.4121 58.3733C34.1859 57.8882 34.0566 56.9827 34.0566 55.6244V29.0411L46.3997 62.1247H49.0816H52.1836L61.2632 37.8376V55.3981C61.2632 56.2712 61.2309 56.9827 61.1662 57.5325C61.1339 57.9206 61.0693 58.244 60.9724 58.438C60.8754 58.6644 60.7785 58.8584 60.6169 59.0201C60.5846 59.0524 60.5523 59.0848 60.5523 59.1171C60.52 59.1495 60.4877 59.1495 60.4554 59.1818C60.2292 59.3758 59.9707 59.5375 59.6476 59.6346C59.6153 59.6669 59.583 59.6669 59.5506 59.6669C59.2598 59.7639 58.9044 59.7963 58.452 59.8286C58.1936 59.8609 57.9027 59.8609 57.6119 59.8609H56.6426V62.1247H70.9567V59.8609H69.9874C69.1473 59.8609 68.501 59.7963 68.0486 59.6669C67.984 59.6669 67.9517 59.6669 67.9194 59.6346C67.6286 59.5375 67.3701 59.3758 67.1439 59.1818C67.1116 59.1495 67.0793 59.1495 67.047 59.1171C67.0147 59.0848 66.9824 59.0524 66.9824 59.0201C66.8854 58.9231 66.8208 58.8261 66.7562 58.6967C66.6916 58.5997 66.6592 58.535 66.6269 58.438C66.5623 58.3086 66.53 58.1793 66.4977 57.9852C66.4007 57.5325 66.3684 56.8857 66.3361 56.0449C66.3361 55.8185 66.3361 55.6244 66.3361 55.3981V30.6581C66.3361 29.5262 66.4654 28.7177 66.6916 28.2326Z" fill="#231F20"/>
<path d="M80.812 30.4641C80.1981 29.785 77.7101 30.9816 74.5435 35.9295C71.377 40.8452 66.6272 43.9822 65.3024 44.2085C63.9776 44.4349 60.1002 44.9523 60.1002 43.206C60.1002 41.492 64.7531 42.2681 67.7581 40.7158C70.7308 39.1959 71.1508 37.2231 71.1831 35.6385C71.2477 34.0538 69.8906 35.1857 68.2751 36.5117C66.6918 37.8053 60.5849 37.9993 57.4506 38.8725C54.3164 39.7133 49.5665 43.0766 48.5326 50.1914C47.5632 56.7564 49.1788 60.3461 50.5682 62.1248H51.3437C50.0835 59.4082 49.922 56.433 52.927 53.9105C56.5136 50.9352 61.2311 52.6169 66.6918 50.1267C72.1848 47.6042 74.9636 42.8503 76.0299 40.1014C77.1285 37.3202 78.1625 35.9619 78.841 34.4096C79.5196 32.8896 81.3936 31.1433 80.812 30.4641Z" fill="#ED0F69"/>
<path d="M50.5679 63.289C50.2125 63.289 49.8893 63.1273 49.6632 62.8362C48.0799 60.7665 46.3997 56.8857 47.4013 50.0297C48.4676 42.6562 53.3144 38.8078 57.1595 37.7729C58.4197 37.4172 60.0676 37.1908 61.7801 36.9321C63.9127 36.641 66.8207 36.2206 67.5639 35.6061C69.0179 34.4096 69.8903 33.7304 70.7628 33.7304C71.1828 33.7304 71.5706 33.8921 71.8614 34.1832C72.3784 34.7006 72.346 35.4444 72.346 35.6708C72.3137 36.1559 72.2814 36.7057 72.1199 37.2878C72.6369 36.6734 73.1215 36.0266 73.5739 35.2827C76.0619 31.4343 78.5822 29.1382 80.3594 29.1382C80.8764 29.1382 81.361 29.3646 81.6518 29.7203C82.6212 30.8199 81.6842 32.1458 80.8764 33.31C80.4886 33.8598 80.1009 34.4096 79.907 34.8947C79.6162 35.5091 79.2931 36.1236 78.9053 36.7704C78.356 37.7729 77.7421 38.8725 77.0959 40.5218C76.2235 42.7532 73.477 48.2833 67.1762 51.1616C64.4943 52.3905 62.0063 52.6492 59.7768 52.9079C57.2887 53.199 55.3177 53.393 53.6698 54.816C51.4726 56.627 51.0526 58.8261 52.3774 61.6396C52.5389 61.9954 52.5389 62.4158 52.3127 62.7392C52.1189 63.0949 51.7311 63.289 51.3434 63.289H50.5679Z" fill="white"/>
<path d="M80.812 30.4641C80.1981 29.785 77.7101 30.9816 74.5435 35.9295C71.377 40.8452 66.6272 43.9822 65.3024 44.2085C63.9776 44.4349 60.1002 44.9523 60.1002 43.206C60.1002 41.492 64.7531 42.2681 67.7581 40.7158C70.7308 39.1959 71.1508 37.2231 71.1831 35.6385C71.2477 34.0538 69.8906 35.1857 68.2751 36.5117C66.6918 37.8053 60.5849 37.9993 57.4506 38.8725C54.3164 39.7133 49.5665 43.0766 48.5326 50.1914C47.5632 56.7564 49.1788 60.3461 50.5682 62.1248H51.3437C50.0835 59.4082 49.922 56.433 52.927 53.9105C56.5136 50.9352 61.2311 52.6169 66.6918 50.1267C72.1848 47.6042 74.9636 42.8503 76.0299 40.1014C77.1285 37.3202 78.1625 35.9619 78.841 34.4096C79.5196 32.8896 81.3936 31.1433 80.812 30.4641Z" fill="#ED0F69"/>
<path d="M23.9108 66.2966H24.7509L25.8495 71.568L29.1776 66.2966H30.0823L28.8222 72.2795H28.2406L29.4038 66.9434H29.3715L25.9464 72.2795H25.4618L24.3308 66.9434L23.1999 72.2795H22.6506L23.9108 66.2966Z" fill="#231F20"/>
<path d="M31.5366 71.9236C32.5382 71.9236 32.9906 71.018 33.1198 70.1125C32.9583 70.1125 32.7644 70.0802 32.6028 70.0802C31.8597 70.0802 30.6964 70.2095 30.6964 71.1474C30.6964 71.6648 31.0842 71.9236 31.5366 71.9236ZM33.4753 71.2444C33.3783 71.6002 33.3137 71.9882 33.3137 72.2793H32.7644C32.7967 72.0529 32.7967 71.8265 32.8613 71.6648H32.829C32.4736 72.2146 31.9889 72.4087 31.3427 72.4087C30.6641 72.4087 30.0825 71.8912 30.0825 71.1797C30.0825 69.8862 31.5365 69.6274 32.6028 69.6274C32.829 69.6274 33.0229 69.6274 33.1845 69.6598C33.2168 69.5304 33.2168 69.4011 33.2168 69.207C33.2168 68.6249 32.8936 68.2692 32.2797 68.2692C31.795 68.2692 31.2781 68.4955 30.9872 68.6572L31.0519 68.1075C31.375 67.9781 31.8597 67.8164 32.3767 67.8164C33.3137 67.8164 33.7984 68.3338 33.7984 69.2394C33.7984 69.4011 33.7661 69.7245 33.7014 70.0802L33.4753 71.2444Z" fill="#231F20"/>
<path d="M34.2829 71.6327C34.606 71.7944 34.9614 71.9238 35.3492 71.9238C35.8662 71.9238 36.577 71.7298 36.577 71.0506C36.577 70.1128 34.8322 70.1451 34.8322 69.0456C34.8322 68.1724 35.7692 67.8167 36.4801 67.8167C36.8678 67.8167 37.2233 67.8813 37.5787 68.043L37.4171 68.5281C37.1263 68.3664 36.7709 68.2694 36.4478 68.2694C36.0277 68.2694 35.4138 68.3988 35.4138 69.0132C35.4138 69.757 37.1586 69.8541 37.1586 71.0183C37.1586 72.0208 36.2539 72.4089 35.4138 72.4089C34.9614 72.4089 34.5414 72.3442 34.1213 72.1502L34.2829 71.6327Z" fill="#231F20"/>
<path d="M39.7435 71.9236C40.8745 71.9236 41.5207 70.727 41.5207 69.6921C41.5207 68.8836 41.1329 68.2692 40.2928 68.2692C39.0973 68.2692 38.5157 69.4657 38.5157 70.5653C38.5157 71.3414 38.9681 71.9236 39.7435 71.9236ZM40.3575 67.8164C41.4884 67.8164 42.1023 68.5602 42.1023 69.6921C42.1023 71.1474 41.1976 72.4087 39.6789 72.4087C38.6126 72.4087 37.9341 71.5678 37.9341 70.5006C37.9341 69.013 38.8711 67.8164 40.3575 67.8164Z" fill="#231F20"/>
<path d="M44.5258 71.9236C45.6567 71.9236 46.3029 70.727 46.3029 69.6921C46.3029 68.8836 45.9152 68.2692 45.0751 68.2692C43.8472 68.2692 43.2979 69.4657 43.2979 70.5653C43.2979 71.3414 43.7503 71.9236 44.5258 71.9236ZM45.1397 67.8164C46.2383 67.8164 46.8845 68.5602 46.8845 69.6921C46.8845 71.1474 45.9475 72.4087 44.4611 72.4087C43.3625 72.4087 42.7163 71.5678 42.7163 70.5006C42.7163 69.013 43.6534 67.8164 45.1397 67.8164Z" fill="#231F20"/>
<path d="M48.1123 68.6572C48.1769 68.4309 48.2092 68.1398 48.2416 67.9134H48.7909C48.7585 68.2045 48.7262 68.4309 48.6939 68.5926C49.114 68.0428 49.4694 67.8164 50.051 67.8164C50.6649 67.8164 51.1173 68.1721 51.1496 68.7866H51.1819C51.4404 68.1721 51.9574 67.8164 52.6683 67.8164C53.4114 67.8164 53.8961 68.3015 53.8961 69.11C53.8961 69.2717 53.8315 69.5951 53.7669 69.9185L53.2499 72.3116H52.7006L53.1853 69.9832C53.2499 69.7245 53.3145 69.4657 53.3145 69.1423C53.3145 68.6572 53.0883 68.2692 52.5713 68.2692C51.6666 68.2692 51.2142 69.2717 51.0527 70.0802L50.6003 72.3116H50.051L50.5357 69.9832C50.6003 69.7245 50.6326 69.4657 50.6326 69.1423C50.6326 68.6572 50.4388 68.2692 49.9218 68.2692C49.017 68.2692 48.5647 69.2717 48.4031 70.0802L47.9508 72.3116H47.3691L48.1123 68.6572Z" fill="#231F20"/>
<path d="M57.5472 66.2966H61.7801L61.6831 66.8141H59.8414L58.7104 72.2795H58.0965L59.2597 66.8141H57.418L57.5472 66.2966Z" fill="#231F20"/>
<path d="M61.1663 68.6896C61.1986 68.4632 61.2632 68.2045 61.2955 67.9134H61.8125C61.7802 68.2045 61.7802 68.4309 61.7156 68.5926H61.7479C62.0064 68.1398 62.3941 67.8164 62.9757 67.8164C63.1373 67.8164 63.2988 67.8487 63.4281 67.8811L63.2988 68.4632C63.1696 68.3985 63.008 68.3662 62.8465 68.3662C61.9417 68.3662 61.6186 69.3364 61.4571 70.1449L61.0047 72.3116H60.4231L61.1663 68.6896Z" fill="#231F20"/>
<path d="M66.8533 71.6003C66.8209 71.8914 66.7886 72.0854 66.7563 72.2794H66.207C66.2393 72.0207 66.2716 71.7943 66.304 71.6326C65.9808 72.0854 65.4315 72.4088 64.9146 72.4088C64.1068 72.4088 63.5251 71.956 63.5251 71.1152C63.5251 70.8242 63.5898 70.5008 63.6544 70.2097L64.1391 67.9136H64.7207L64.2037 70.3391C64.1714 70.5978 64.1068 70.7918 64.1068 71.0829C64.1068 71.6003 64.4299 71.9237 64.9792 71.9237C65.9162 71.9237 66.4009 70.9859 66.6271 69.9833L67.0471 67.9136H67.6287L66.8533 71.6003Z" fill="#231F20"/>
<path d="M67.8547 71.6327C68.1778 71.7944 68.5332 71.9238 68.8887 71.9238C69.4056 71.9238 70.1165 71.7298 70.1165 71.0506C70.1165 70.1128 68.404 70.1451 68.404 69.0456C68.404 68.1724 69.3087 67.8167 70.0196 67.8167C70.4073 67.8167 70.795 67.8813 71.1505 68.043L70.9566 68.5281C70.6981 68.3664 70.3427 68.2694 69.9873 68.2694C69.5672 68.2694 68.9856 68.3988 68.9856 69.0132C68.9856 69.757 70.7304 69.8541 70.7304 71.0183C70.7304 72.0208 69.8257 72.4089 68.9533 72.4089C68.5009 72.4089 68.1132 72.3442 67.6931 72.1502L67.8547 71.6327Z" fill="#231F20"/>
<path d="M72.8633 66.9434L73.4772 66.717L73.2187 67.9136H74.3496L74.2527 68.3664H73.1218L72.6694 70.5331C72.6048 70.8242 72.5401 71.1152 72.5401 71.4063C72.5401 71.762 72.7017 71.9237 73.0248 71.9237C73.1864 71.9237 73.3479 71.8914 73.4772 71.8267L73.4449 72.2795C73.2833 72.3442 73.1218 72.4088 72.8956 72.4088C72.2816 72.4088 71.9262 72.0531 71.9262 71.568C71.9262 71.2123 72.0878 70.5008 72.1201 70.3068L72.5401 68.3664H71.6677L71.797 67.9136H72.6694L72.8633 66.9434Z" fill="#231F20"/>
</g>
</svg>
