<svg width="50" height="50" viewBox="0 0 50 50" fill="none" xmlns="http://www.w3.org/2000/svg">
<path d="M39.6874 10.2296C37.7774 8.30029 35.5024 6.77059 32.995 5.72972C30.4876 4.68885 27.7981 4.15766 25.0833 4.16712C13.7083 4.16712 4.43742 13.4379 4.43742 24.8129C4.43742 28.4588 5.39575 32.0004 7.18742 35.1254L4.27075 45.8338L15.2083 42.9588C18.2291 44.6046 21.6249 45.4796 25.0833 45.4796C36.4583 45.4796 45.7291 36.2088 45.7291 24.8338C45.7291 19.3129 43.5833 14.1254 39.6874 10.2296ZM25.0833 41.9796C21.9999 41.9796 18.9791 41.1463 16.3333 39.5838L15.7083 39.2088L9.20825 40.9171L10.9374 34.5838L10.5208 33.938C8.80772 31.2025 7.89813 28.0405 7.89575 24.8129C7.89575 15.3546 15.6041 7.64628 25.0624 7.64628C29.6458 7.64628 33.9583 9.43795 37.1874 12.688C38.7863 14.2795 40.0535 16.1727 40.9153 18.2576C41.7772 20.3425 42.2167 22.5778 42.2083 24.8338C42.2499 34.2921 34.5416 41.9796 25.0833 41.9796ZM34.4999 29.1463C33.9791 28.8963 31.4374 27.6463 30.9791 27.4588C30.4999 27.2921 30.1666 27.2088 29.8124 27.7088C29.4583 28.2296 28.4791 29.3963 28.1874 29.7296C27.8958 30.0838 27.5833 30.1254 27.0624 29.8546C26.5416 29.6046 24.8749 29.0421 22.9166 27.2921C21.3749 25.9171 20.3541 24.2296 20.0416 23.7088C19.7499 23.1879 19.9999 22.9171 20.2708 22.6463C20.4999 22.4171 20.7916 22.0421 21.0416 21.7504C21.2916 21.4588 21.3958 21.2296 21.5624 20.8963C21.7291 20.5421 21.6458 20.2505 21.5208 20.0005C21.3958 19.7505 20.3541 17.2088 19.9374 16.1671C19.5208 15.1671 19.0833 15.2921 18.7708 15.2713H17.7708C17.4166 15.2713 16.8749 15.3963 16.3958 15.9171C15.9374 16.4379 14.6041 17.6879 14.6041 20.2296C14.6041 22.7713 16.4583 25.2296 16.7083 25.5629C16.9583 25.9171 20.3541 31.1254 25.5208 33.3546C26.7499 33.8963 27.7083 34.2088 28.4583 34.4379C29.6874 34.8338 30.8124 34.7713 31.7083 34.6463C32.7083 34.5004 34.7708 33.3963 35.1874 32.1879C35.6249 30.9796 35.6249 29.9588 35.4791 29.7296C35.3333 29.5004 35.0208 29.3963 34.4999 29.1463Z" fill="black"/>
</svg>
