<svg width="42" height="42" viewBox="0 0 42 42" fill="none" xmlns="http://www.w3.org/2000/svg">
<path d="M29.75 31.5H12.25V10.5H29.75C29.75 11.4625 30.5375 12.25 31.5 12.25C32.4625 12.25 33.25 11.4625 33.25 10.5V5.25C33.25 3.325 31.675 1.75 29.75 1.75L12.25 1.7675C10.325 1.7675 8.75 3.325 8.75 5.25V36.75C8.75 38.675 10.325 40.25 12.25 40.25H29.75C31.675 40.25 33.25 38.675 33.25 36.75V31.5C33.25 30.5375 32.4625 29.75 31.5 29.75C30.5375 29.75 29.75 30.5375 29.75 31.5Z" fill="#797979"/>
<path d="M37.8875 20.3875L33.005 15.505C32.8833 15.38 32.727 15.2941 32.5562 15.2584C32.3854 15.2226 32.2079 15.2387 32.0463 15.3045C31.8846 15.3703 31.7463 15.4828 31.649 15.6276C31.5517 15.7724 31.4998 15.943 31.5 16.1175V19.25H24.5C23.5375 19.25 22.75 20.0375 22.75 21C22.75 21.9625 23.5375 22.75 24.5 22.75H31.5V25.8825C31.5 26.67 32.445 27.055 32.9875 26.495L37.87 21.6125C38.22 21.28 38.22 20.72 37.8875 20.3875Z" fill="#797979"/>
</svg>
