<svg width="65" height="65" viewBox="0 0 65 65" fill="none" xmlns="http://www.w3.org/2000/svg">
<mask id="mask0_201_128" style="mask-type:luminance" maskUnits="userSpaceOnUse" x="0" y="0" width="65" height="65">
<path d="M0 0H65V65H0V0Z" fill="white"/>
</mask>
<g mask="url(#mask0_201_128)">
<path d="M26.8125 45.9604L46.9517 25.8213C49.8439 22.9283 51.858 19.2756 52.761 15.2858L53.6223 11.4915L49.8252 12.35C45.8351 13.2538 42.1824 15.2689 39.2898 18.1621L24.895 32.5542M26.8125 45.9604L32.5569 55.5344C35.7473 52.344 40.216 47.8752 32.5569 40.2133L26.8125 45.9604ZM26.8125 45.9604L19.1506 38.2985M24.895 32.5542C17.2358 24.8923 12.7671 29.361 9.57667 32.5542L19.1506 38.2985M24.895 32.5542L19.1506 38.2985M13.4062 44.0456C13.4062 44.0456 8.79396 50.9248 11.4915 53.6223C14.1863 56.3198 21.0654 51.7075 21.0654 51.7075" stroke="black" stroke-width="3" stroke-linecap="round" stroke-linejoin="round"/>
</g>
</svg>
