<svg width="260" height="260" viewBox="0 0 260 260" fill="none" xmlns="http://www.w3.org/2000/svg">
<path d="M102.917 101.021V158.98C102.917 163.313 104.813 166.473 108.604 168.459C112.396 170.445 116.098 170.264 119.709 167.917L164.667 139.209C168.098 137.223 169.813 134.153 169.813 130C169.813 125.848 168.098 122.778 164.667 120.792L119.709 92.0837C116.098 89.7364 112.396 89.5559 108.604 91.542C104.813 93.5281 102.917 96.6878 102.917 101.021ZM130 238.334C115.014 238.334 100.931 235.492 87.7503 229.808C74.5698 224.124 63.1045 216.403 53.3545 206.646C43.6045 196.896 35.8875 185.431 30.2037 172.25C24.5198 159.07 21.6742 144.986 21.667 130C21.667 115.014 24.5125 100.931 30.2037 87.7503C35.8948 74.5698 43.6117 63.1045 53.3545 53.3545C63.1045 43.6045 74.5698 35.8839 87.7503 30.1928C100.931 24.5017 115.014 21.6598 130 21.667C144.986 21.667 159.07 24.5126 172.25 30.2037C185.431 35.8948 196.896 43.6117 206.646 53.3545C216.396 63.1045 224.117 74.5698 229.808 87.7503C235.499 100.931 238.341 115.014 238.334 130C238.334 144.986 235.488 159.07 229.797 172.25C224.106 185.431 216.389 196.896 206.646 206.646C196.896 216.396 185.431 224.117 172.25 229.808C159.07 235.499 144.986 238.341 130 238.334ZM130 216.667C154.014 216.667 174.464 208.228 191.349 191.35C208.235 174.471 216.674 154.021 216.667 130C216.667 105.986 208.228 85.5367 191.349 68.6512C174.471 51.7656 154.021 43.3264 130 43.3337C105.986 43.3337 85.5367 51.7728 68.6512 68.6512C51.7656 85.5295 43.3264 105.979 43.3337 130C43.3337 154.014 51.7728 174.464 68.6512 191.35C85.5295 208.235 105.979 216.674 130 216.667Z" fill="white"/>
</svg>
