<svg width="50" height="50" viewBox="0 0 50 50" fill="none" xmlns="http://www.w3.org/2000/svg">
<path d="M31.25 25C31.25 26.2361 30.8834 27.4445 30.1967 28.4723C29.5099 29.5001 28.5338 30.3012 27.3918 30.7742C26.2497 31.2473 24.9931 31.3711 23.7807 31.1299C22.5683 30.8888 21.4547 30.2935 20.5806 29.4194C19.7065 28.5453 19.1112 27.4317 18.8701 26.2193C18.6289 25.0069 18.7527 23.7503 19.2258 22.6082C19.6988 21.4662 20.4999 20.4901 21.5277 19.8033C22.5555 19.1166 23.7639 18.75 25 18.75C26.656 18.7552 28.2427 19.4153 29.4137 20.5863C30.5847 21.7573 31.2448 23.344 31.25 25ZM44.5312 16.4062V33.5938C44.5312 36.4946 43.3789 39.2766 41.3277 41.3277C39.2766 43.3789 36.4946 44.5312 33.5938 44.5312H16.4062C13.5054 44.5312 10.7234 43.3789 8.67227 41.3277C6.62109 39.2766 5.46875 36.4946 5.46875 33.5938V16.4062C5.46875 13.5054 6.62109 10.7234 8.67227 8.67227C10.7234 6.62109 13.5054 5.46875 16.4062 5.46875H33.5938C36.4946 5.46875 39.2766 6.62109 41.3277 8.67227C43.3789 10.7234 44.5312 13.5054 44.5312 16.4062ZM34.375 25C34.375 23.1458 33.8252 21.3332 32.795 19.7915C31.7649 18.2498 30.3007 17.0482 28.5877 16.3386C26.8746 15.6291 24.9896 15.4434 23.171 15.8051C21.3525 16.1669 19.682 17.0598 18.3709 18.3709C17.0598 19.682 16.1669 21.3525 15.8051 23.171C15.4434 24.9896 15.6291 26.8746 16.3386 28.5877C17.0482 30.3007 18.2498 31.7649 19.7915 32.795C21.3332 33.8252 23.1458 34.375 25 34.375C27.4864 34.375 29.871 33.3873 31.6291 31.6291C33.3873 29.871 34.375 27.4864 34.375 25ZM37.5 14.8438C37.5 14.3802 37.3625 13.9271 37.105 13.5416C36.8475 13.1562 36.4814 12.8558 36.0532 12.6784C35.6249 12.501 35.1537 12.4546 34.699 12.545C34.2444 12.6355 33.8267 12.8587 33.499 13.1865C33.1712 13.5142 32.948 13.9319 32.8575 14.3865C32.7671 14.8411 32.8135 15.3124 32.9909 15.7407C33.1683 16.1689 33.4687 16.535 33.8541 16.7925C34.2396 17.05 34.6927 17.1875 35.1562 17.1875C35.7779 17.1875 36.374 16.9406 36.8135 16.501C37.2531 16.0615 37.5 15.4654 37.5 14.8438Z" fill="black"/>
</svg>
