<svg width="24" height="24" viewBox="0 0 24 24" fill="none" xmlns="http://www.w3.org/2000/svg">
<path d="M21.0024 20.2477L17.0044 16.2407C18.3887 14.6582 19.1038 12.5997 18.9987 10.4998C18.8936 8.39992 17.9765 6.42308 16.4411 4.98677C14.9056 3.55045 12.8721 2.7671 10.7698 2.80215C8.66762 2.8372 6.66131 3.6879 5.17461 5.17461C3.6879 6.66131 2.8372 8.66762 2.80215 10.7698C2.7671 12.8721 3.55045 14.9056 4.98677 16.4411C6.42308 17.9765 8.39992 18.8936 10.4998 18.9987C12.5997 19.1038 14.6582 18.3887 16.2407 17.0044L20.2477 21.0024C20.3478 21.1025 20.4835 21.1587 20.6251 21.1587C20.7666 21.1587 20.9023 21.1025 21.0024 21.0024C21.1025 20.9023 21.1587 20.7666 21.1587 20.6251C21.1587 20.4835 21.1025 20.3478 21.0024 20.2477ZM3.91413 10.9219C3.91413 9.53592 4.32513 8.18104 5.09516 7.02861C5.86518 5.87618 6.95965 4.97797 8.24017 4.44756C9.52068 3.91716 10.9297 3.77838 12.2891 4.04878C13.6485 4.31918 14.8972 4.98661 15.8772 5.96667C16.8573 6.94673 17.5247 8.1954 17.7951 9.55478C18.0655 10.9142 17.9267 12.3232 17.3963 13.6037C16.8659 14.8842 15.9677 15.9787 14.8153 16.7487C13.6628 17.5188 12.308 17.9298 10.9219 17.9298C9.06408 17.9274 7.283 17.1883 5.96929 15.8746C4.65559 14.5609 3.9165 12.7798 3.91413 10.9219Z" fill="black"/>
</svg>
