<svg width="24" height="24" viewBox="0 0 24 24" fill="none" xmlns="http://www.w3.org/2000/svg">
<path d="M21.0023 20.2477L17.0043 16.2406C18.3886 14.6582 19.1038 12.5996 18.9986 10.4997C18.8935 8.39986 17.9764 6.42302 16.441 4.98671C14.9056 3.55039 12.872 2.76704 10.7698 2.80209C8.66756 2.83714 6.66125 3.68784 5.17455 5.17455C3.68784 6.66125 2.83714 8.66756 2.80209 10.7698C2.76704 12.872 3.55039 14.9056 4.98671 16.441C6.42302 17.9764 8.39986 18.8935 10.4997 18.9986C12.5996 19.1038 14.6582 18.3886 16.2406 17.0043L20.2477 21.0023C20.3477 21.1024 20.4835 21.1586 20.625 21.1586C20.7665 21.1586 20.9023 21.1024 21.0023 21.0023C21.1024 20.9023 21.1586 20.7665 21.1586 20.625C21.1586 20.4835 21.1024 20.3477 21.0023 20.2477ZM3.91406 10.9219C3.91406 9.53586 4.32507 8.18097 5.09509 7.02855C5.86512 5.87612 6.95959 4.97791 8.2401 4.4475C9.52061 3.9171 10.9297 3.77832 12.289 4.04872C13.6484 4.31912 14.8971 4.98655 15.8771 5.96661C16.8572 6.94667 17.5246 8.19534 17.795 9.55472C18.0654 10.9141 17.9267 12.3231 17.3963 13.6037C16.8658 14.8842 15.9676 15.9786 14.8152 16.7487C13.6628 17.5187 12.3079 17.9297 10.9219 17.9297C9.06402 17.9273 7.28294 17.1882 5.96923 15.8745C4.65553 14.5608 3.91644 12.7797 3.91406 10.9219Z" fill="black"/>
</svg>
