<svg width="23" height="23" viewBox="0 0 23 23" fill="none" xmlns="http://www.w3.org/2000/svg">
<path d="M20.5023 19.7477L16.5043 15.7406C17.8886 14.1582 18.6038 12.0996 18.4986 9.99974C18.3935 7.89986 17.4764 5.92302 15.941 4.4867C14.4056 3.05039 12.372 2.26704 10.2698 2.30209C8.16756 2.33714 6.16124 3.18784 4.67454 4.67454C3.18784 6.16124 2.33714 8.16756 2.30209 10.2698C2.26704 12.372 3.05039 14.4056 4.4867 15.941C5.92302 17.4764 7.89986 18.3935 9.99974 18.4986C12.0996 18.6038 14.1582 17.8886 15.7406 16.5043L19.7477 20.5023C19.8477 20.6024 19.9835 20.6586 20.125 20.6586C20.2665 20.6586 20.4023 20.6024 20.5023 20.5023C20.6024 20.4023 20.6586 20.2665 20.6586 20.125C20.6586 19.9835 20.6024 19.8477 20.5023 19.7477ZM3.41406 10.4219C3.41406 9.03586 3.82506 7.68097 4.59509 6.52854C5.36512 5.37611 6.45959 4.47791 7.7401 3.9475C9.02061 3.4171 10.4296 3.27832 11.789 3.54872C13.1484 3.81911 14.3971 4.48654 15.3771 5.4666C16.3572 6.44666 17.0246 7.69534 17.295 9.05472C17.5654 10.4141 17.4267 11.8231 16.8963 13.1036C16.3658 14.3842 15.4676 15.4786 14.3152 16.2487C13.1628 17.0187 11.8079 17.4297 10.4219 17.4297C8.56402 17.4273 6.78293 16.6882 5.46923 15.3745C4.15552 14.0608 3.41644 12.2797 3.41406 10.4219Z" fill="black"/>
</svg>
