<svg width="70" height="80" viewBox="0 0 70 80" fill="none" xmlns="http://www.w3.org/2000/svg">
<path d="M27.182 44.75V30.044H32.1072L32.844 24.3271H27.182V20.6791C27.182 19.024 27.6422 17.8946 30.0151 17.8946H33.0424V12.7814C31.5769 12.6259 30.104 12.5505 28.6302 12.5556C24.2666 12.5556 21.2793 15.2198 21.2793 20.1133V24.3271H16.3436V30.044H21.2793V44.75H3.11111C2.55121 44.75 2.01424 44.5276 1.61833 44.1317C1.22242 43.7358 1 43.1988 1 42.6389V8.86111C1 8.30121 1.22242 7.76424 1.61833 7.36833C2.01424 6.97242 2.55121 6.75 3.11111 6.75H36.8889C37.4488 6.75 37.9858 6.97242 38.3817 7.36833C38.7776 7.76424 39 8.30121 39 8.86111V42.6389C39 43.1988 38.7776 43.7358 38.3817 44.1317C37.9858 44.5276 37.4488 44.75 36.8889 44.75H27.182Z" fill="black"/>
</svg>
