<svg width="70" height="79" viewBox="0 0 70 79" fill="none" xmlns="http://www.w3.org/2000/svg">
<path d="M27.182 44V29.294H32.1072L32.844 23.5771H27.182V19.9291C27.182 18.274 27.6422 17.1446 30.0151 17.1446H33.0424V12.0314C31.5769 11.8759 30.104 11.8005 28.6302 11.8056C24.2666 11.8056 21.2793 14.4698 21.2793 19.3633V23.5771H16.3436V29.294H21.2793V44H3.11111C2.55121 44 2.01424 43.7776 1.61833 43.3817C1.22242 42.9858 1 42.4488 1 41.8889V8.11111C1 7.55121 1.22242 7.01424 1.61833 6.61833C2.01424 6.22242 2.55121 6 3.11111 6H36.8889C37.4488 6 37.9858 6.22242 38.3817 6.61833C38.7776 7.01424 39 7.55121 39 8.11111V41.8889C39 42.4488 38.7776 42.9858 38.3817 43.3817C37.9858 43.7776 37.4488 44 36.8889 44H27.182Z" fill="black"/>
</svg>
