<svg width="52" height="51" viewBox="0 0 52 51" fill="none" xmlns="http://www.w3.org/2000/svg">
<path d="M8.74756 10.6252C8.747 11.7523 8.29869 12.8331 7.50126 13.6298C6.70383 14.4264 5.6226 14.8736 4.49543 14.873C3.36826 14.8725 2.28748 14.4242 1.49085 13.6267C0.694221 12.8293 0.246996 11.7481 0.247559 10.6209C0.248123 9.49375 0.69643 8.41297 1.49386 7.61634C2.29129 6.81971 3.37251 6.37248 4.49968 6.37305C5.62685 6.37361 6.70763 6.82192 7.50427 7.61935C8.3009 8.41677 8.74812 9.498 8.74756 10.6252ZM8.87506 18.0202H0.375059V44.6252H8.87506V18.0202ZM22.3051 18.0202H13.8476V44.6252H22.2201V30.6639C22.2201 22.8864 32.3563 22.1639 32.3563 30.6639V44.6252H40.7501V27.7739C40.7501 14.6627 25.7476 15.1514 22.2201 21.5902L22.3051 18.0202Z" fill="black"/>
</svg>
