<svg width="48" height="50" viewBox="0 0 48 50" fill="none" xmlns="http://www.w3.org/2000/svg">
<path d="M45.9166 20.2288C46.0197 17.2468 45.3675 14.2871 44.0208 11.6246C43.1071 10.5321 41.839 9.79483 40.4375 9.54127C34.6406 9.01528 28.8198 8.79969 23 8.89543C17.2013 8.79535 11.4015 9.00398 5.62498 9.52043C4.48293 9.72818 3.42605 10.2639 2.58331 11.0621C0.708308 12.7913 0.499975 15.7496 0.291641 18.2496C-0.0106252 22.7445 -0.0106252 27.2547 0.291641 31.7496C0.351912 33.1567 0.56142 34.5534 0.916641 35.9163C1.16784 36.9685 1.67606 37.942 2.39581 38.7496C3.24428 39.5901 4.32578 40.1563 5.49997 40.3746C9.99147 40.929 14.5171 41.1588 19.0416 41.0621C26.3333 41.1663 32.7291 41.0621 40.2916 40.4788C41.4947 40.2739 42.6066 39.707 43.4791 38.8538C44.0624 38.2703 44.4981 37.5561 44.75 36.7704C45.495 34.4842 45.861 32.0915 45.8333 29.6871C45.9166 28.5204 45.9166 21.4788 45.9166 20.2288ZM18.2916 30.9371V18.0413L30.625 24.5204C27.1666 26.4371 22.6041 28.6038 18.2916 30.9371Z" fill="black"/>
</svg>
