<svg width="63" height="52" viewBox="0 0 63 52" fill="none" xmlns="http://www.w3.org/2000/svg">
<g id="bi:twitter">
<path id="Vector" d="M15.7063 48.5628C34.575 48.5628 44.8969 32.6157 44.8969 18.8106C44.8969 18.3644 44.8969 17.9118 44.8781 17.4655C46.8877 15.9817 48.6221 14.1446 50 12.0404C48.1229 12.8846 46.1336 13.441 44.0969 13.6915C46.2423 12.3835 47.8491 10.3254 48.6187 7.89982C46.6031 9.11784 44.3969 9.97288 42.0969 10.4275C40.5506 8.74777 38.5044 7.63499 36.2753 7.26155C34.0461 6.8881 31.7585 7.27482 29.7667 8.36181C27.7749 9.44879 26.19 11.1754 25.2577 13.2741C24.3253 15.3729 24.0974 17.7267 24.6094 19.9709C20.5304 19.7623 16.5401 18.6814 12.897 16.7985C9.25397 14.9156 6.03964 12.2726 3.4625 9.04094C2.15419 11.3458 1.75492 14.0721 2.34577 16.6663C2.93662 19.2605 4.4733 21.5281 6.64375 23.0086C5.01731 22.9522 3.42663 22.5067 2 21.7081V21.8515C2.0028 24.266 2.82284 26.6054 4.32148 28.4744C5.82013 30.3433 7.90546 31.6272 10.225 32.1089C9.34457 32.3563 8.43509 32.4796 7.52188 32.4754C6.87807 32.4774 6.23556 32.4166 5.60313 32.2938C6.25871 34.3722 7.53523 36.1894 9.2539 37.4909C10.9726 38.7924 13.0473 39.513 15.1875 39.5517C11.5517 42.4644 7.06063 44.0442 2.4375 44.0365C1.62288 44.04 0.808822 43.9921 0 43.8931C4.69223 46.9444 10.1416 48.5645 15.7063 48.5628Z" fill="black"></path>
</g>
</svg>
