<svg width="69" height="69" viewBox="0 0 69 69" fill="none" xmlns="http://www.w3.org/2000/svg">
<g id="footsteps-silhouette-variant 13" clip-path="url('#clip0_201_345')">
<g id="Group">
<path id="Vector" d="M0.2013 52.1244C0.73789 54.7135 2.61596 56.7928 5.37941 57.8659C7.52577 58.6977 9.71238 59.0867 13.7368 59.355C16.7686 59.5562 19.5588 59.2208 24.0796 58.1208C29.5394 56.8062 33.8992 54.9415 35.5358 53.2647L35.9785 52.7952L35.0395 48.9183C34.5163 46.7987 33.8992 44.2365 33.6712 43.2438C33.0541 40.4938 33.0541 40.4938 30.8541 39.8499C26.1589 38.4682 18.982 38.1194 14.3539 39.0316C11.2819 39.6487 8.78676 40.4401 6.64039 41.4865C3.35377 43.0963 1.23424 45.1756 0.389109 47.6305C0.0403235 48.6634 -0.0669954 50.9037 0.2013 52.1244Z" fill="black"></path>
<path id="Vector_2" d="M16.0845 20.5191C16.2723 21.9813 17.265 23.7654 18.6735 25.1606C20.887 27.3338 24.5626 29.0106 29.4724 30.0838C32.2224 30.6875 33.8993 30.8216 37.5481 30.7277C41.8274 30.6204 44.4165 30.2448 47.2604 29.3326C48.9507 28.796 48.9909 28.7423 49.4336 26.985C49.5946 26.3008 50.2385 23.6715 50.8556 21.1361L51.969 16.5483L51.4995 16.0654C49.5007 13.9861 43.3567 11.6653 36.6761 10.4714C32.7724 9.77382 30.3846 9.73358 26.0114 10.3104C20.5113 11.0348 17.2247 13.208 16.3125 16.7093C16.071 17.6483 15.9637 19.4861 16.0845 20.5191Z" fill="black"></path>
<path id="Vector_3" d="M35.898 41.2988C36.0858 41.8086 36.8638 44.3708 37.6419 46.9867C38.4065 49.6026 39.0504 51.7623 39.0773 51.7758C39.1578 51.8563 42.2566 51.4001 43.3298 51.1453C47.7432 50.1257 50.8689 48.0465 52.1433 45.2964C53.1762 43.0562 52.6799 40.5073 50.8555 38.7634C47.7432 35.8122 42.3102 36.0536 36.7297 39.3805C36.0858 39.7695 35.5626 40.1451 35.5626 40.2256C35.5626 40.2927 35.7236 40.7756 35.898 41.2988Z" fill="black"></path>
<path id="Vector_4" d="M52.358 29.7084C54.4373 31.0499 57.4019 32.2036 59.5483 32.5255C64.0825 33.1828 67.946 30.956 68.5764 27.3072C69.113 24.1681 66.7118 20.9217 62.5532 19.1778C60.8898 18.4802 58.0056 17.8095 55.7251 17.5815L55.0543 17.501L53.8604 21.5522C53.2031 23.7791 52.4251 26.4084 52.1031 27.3877L51.5397 29.1852L52.358 29.7084Z" fill="black"></path>
</g>
</g>
<defs>
<clipPath id="clip0_201_345">
<rect width="68.6837" height="68.6837" fill="white" transform="matrix(0 -1 1 0 0 69)"></rect>
</clipPath>
</defs>
</svg>
