<svg width="43" height="43" viewBox="0 0 43 43" fill="none" xmlns="http://www.w3.org/2000/svg">
<g id="Group">
<path id="Vector" fill-rule="evenodd" clip-rule="evenodd" d="M0 0H43V43H0V0Z" fill="white"></path>
<path id="Vector_2" fill-rule="evenodd" clip-rule="evenodd" d="M1.89263 39.6408H1.76972C1.76972 39.5795 1.73893 39.4871 1.73893 39.4561C1.73893 39.4256 1.73893 39.3642 1.64658 39.3642H1.46187V39.6408H1.36951V38.9948H1.64658C1.76972 38.9948 1.86185 39.0258 1.86185 39.1485C1.86185 39.2409 1.83106 39.2719 1.8005 39.3022C1.83129 39.3332 1.86185 39.364 1.86185 39.4256V39.5485C1.86185 39.5795 1.86185 39.5795 1.89263 39.5795V39.6408ZM1.76972 39.1795C1.76972 39.0872 1.70815 39.0872 1.67736 39.0872H1.46187V39.2719H1.64658C1.70815 39.2719 1.76972 39.2409 1.76972 39.1795ZM2.29284 39.3024C2.29284 38.9335 1.98521 38.6254 1.58501 38.6254C1.21581 38.6254 0.907959 38.9335 0.907959 39.3024C0.907959 39.7024 1.21581 40.0105 1.58501 40.0105C1.98499 40.0103 2.29284 39.7024 2.29284 39.3024ZM2.20048 39.3024C2.20048 39.6411 1.92364 39.8871 1.58501 39.8871C1.24637 39.8871 1.00031 39.6408 1.00031 39.3024C1.00031 38.9948 1.24659 38.7177 1.58501 38.7177C1.92342 38.7177 2.20048 38.9948 2.20048 39.3024ZM40.1138 26.87C40.1138 27.7933 39.5291 28.2236 38.4826 28.2236H36.4827V27.3003H38.4826C38.6674 27.3003 38.8213 27.2697 38.8831 27.2084C38.9444 27.1466 39.006 27.0542 39.006 26.9313C39.006 26.8079 38.9446 26.685 38.8831 26.6237C38.8213 26.5619 38.6984 26.5313 38.5137 26.5313C37.56 26.5003 36.3596 26.5619 36.3596 25.208C36.3596 24.5923 36.7596 23.9153 37.8366 23.9153H39.8983V24.8386H37.9903C37.806 24.8386 37.6827 24.8386 37.5903 24.8999C37.498 24.9923 37.4366 25.0847 37.4366 25.2386C37.4366 25.3925 37.529 25.4849 37.6519 25.5467C37.7753 25.5772 37.8984 25.608 38.0523 25.608H38.606C39.1907 25.608 39.5601 25.7309 39.8064 25.9466C39.9907 26.1619 40.1138 26.4392 40.1138 26.87ZM35.7747 25.9466C35.5284 25.7309 35.159 25.608 34.5743 25.608H34.0206C33.8669 25.608 33.7435 25.577 33.6206 25.5467C33.4973 25.4849 33.4053 25.3925 33.4053 25.2386C33.4053 25.0847 33.4359 24.9923 33.5591 24.8999C33.6514 24.8386 33.7743 24.8386 33.959 24.8386H35.867V23.9153H33.8053C32.6973 23.9153 32.3279 24.5923 32.3279 25.208C32.3279 26.5617 33.5283 26.5003 34.4824 26.5313C34.6666 26.5313 34.79 26.5619 34.8514 26.6237C34.9127 26.685 34.9747 26.8079 34.9747 26.9313C34.9747 27.0542 34.9129 27.1466 34.8514 27.2084C34.759 27.2697 34.6361 27.3003 34.4514 27.3003H32.451V28.2236H34.4514C35.4974 28.2236 36.0823 27.7931 36.0823 26.87C36.0823 26.4392 35.9594 26.1619 35.7747 25.9466ZM31.8355 27.3315H29.4049V26.4698H31.7742V25.6084H29.4049V24.808H31.8355V23.9157H28.3892V28.2238H31.8355V27.3315ZM27.2811 24.1312C26.9425 23.9465 26.5425 23.9155 26.0194 23.9155H23.6501V28.2236H24.6961V26.6542H25.8041C26.1731 26.6542 26.3888 26.6853 26.5427 26.839C26.7275 27.0542 26.7275 27.4236 26.7275 27.7007V28.2236H27.7427V27.3926C27.7427 26.9927 27.7121 26.8079 27.589 26.5927C27.4966 26.4693 27.3124 26.3156 27.0661 26.2233C27.3427 26.1313 27.8047 25.7619 27.8047 25.0847C27.8045 24.5925 27.6198 24.3155 27.2811 24.1312ZM21.4342 23.9155H18.1413L16.818 25.3312L15.5563 23.9155H11.4019V28.2236H15.4949L16.8182 26.8079L18.08 28.2236H20.0803V26.7776H21.3729C22.2652 26.7776 23.158 26.5313 23.158 25.3312C23.1577 24.1618 22.2344 23.9155 21.4342 23.9155ZM26.4502 25.7006C26.2965 25.7619 26.1425 25.7619 25.9578 25.7619L24.6961 25.7929V24.8078H25.9578C26.1425 24.8078 26.3272 24.8078 26.4502 24.9002C26.5735 24.962 26.6654 25.0849 26.6654 25.2696C26.6654 25.4543 26.5735 25.6082 26.4502 25.7006ZM21.4342 25.9159H20.0801V24.8078H21.4342C21.8036 24.8078 22.0497 24.962 22.0497 25.3312C22.0497 25.7006 21.8034 25.9159 21.4342 25.9159ZM17.4643 26.0696L19.0644 24.3773V27.8546L17.4643 26.0696ZM14.9716 27.3315H12.4173V26.4698H14.6945V25.6084H12.4173V24.808H15.0024L16.141 26.0698L14.9716 27.3315ZM37.2517 20.8073H35.7747L33.8359 17.576V20.8073H31.7436L31.3432 19.8532H29.1891L28.7892 20.8073H27.5888C27.0964 20.8073 26.4502 20.6842 26.0812 20.3148C25.7426 19.9456 25.5578 19.4532 25.5578 18.6838C25.5578 18.0376 25.6502 17.4529 26.1115 16.9913C26.4192 16.6527 26.9733 16.499 27.6809 16.499H28.6656V17.4223H27.6809C27.3119 17.4223 27.0962 17.4839 26.8809 17.6686C26.6962 17.8533 26.6039 18.1917 26.6039 18.6533C26.6039 19.1148 26.6962 19.4534 26.8809 19.6689C27.0346 19.8226 27.3119 19.8842 27.5885 19.8842H28.0503L29.5273 16.4992H31.0661L32.7894 20.5613V16.499H34.3898L36.2055 19.484V16.499H37.2515V20.8073H37.2517ZM25.0347 16.499H23.9887V20.8073H25.0347V16.499ZM22.8497 16.6837C22.511 16.499 22.142 16.499 21.6189 16.499H19.2491V20.8073H20.2646V19.2377H21.3724C21.7418 19.2377 21.9881 19.2685 22.1418 19.4224C22.3265 19.6379 22.2955 20.0074 22.2955 20.2534V20.8073H23.3415V19.9456C23.3415 19.5764 23.311 19.3917 23.1573 19.1762C23.0649 19.053 22.8802 18.8991 22.6649 18.807C22.9416 18.6838 23.4036 18.3454 23.4036 17.6684C23.4038 17.176 23.1881 16.899 22.8497 16.6837ZM18.5105 19.915H16.1102V19.0532H18.4797V18.1609H16.1102V17.3915H18.5105V16.4992H15.0639V20.8075H18.5105V19.915ZM14.2945 16.499H12.602L11.3403 19.4224L9.9862 16.499H8.32447V20.561L6.5704 16.499H5.03181L3.18538 20.8073H4.2932L4.69318 19.8532H6.84724L7.24722 20.8073H9.33993V17.4223L10.8477 20.8073H11.7401L13.2481 17.4223V20.8073H14.2943L14.2945 16.499ZM30.9742 18.9301L30.2662 17.2376L29.5586 18.9301H30.9742ZM22.0497 18.2533C21.896 18.3456 21.7421 18.3456 21.5266 18.3456H20.2646V17.3917H21.5263C21.7111 17.3917 21.9261 17.3917 22.0495 17.4533C22.1724 17.5457 22.2342 17.6688 22.2342 17.8533C22.2342 18.0378 22.1726 18.1915 22.0497 18.2533ZM5.06238 18.9301L5.77021 17.2376L6.47804 18.9301H5.06238ZM39.8678 2.98926H3.15437V18.4993L4.41611 15.6374H7.0933L7.46272 16.3453V15.6374H10.6017L11.3095 17.176L11.9866 15.6374H21.9881C22.4494 15.6374 22.8494 15.7298 23.1575 15.9759V15.6374H25.8963V15.9759C26.3576 15.7296 26.9423 15.6374 27.6196 15.6374H31.5893L31.9587 16.3453V15.6374H34.8821L35.3131 16.3453V15.6374H38.1748V21.6691H35.2823L34.7287 20.746V21.6691H31.1279L30.7279 20.6844H29.8352L29.4352 21.6691H27.5582C26.8196 21.6691 26.2655 21.4844 25.8965 21.2999V21.6691H21.4342V20.2842C21.4342 20.0995 21.4034 20.0687 21.2803 20.0687H21.1266V21.6689H12.5097V20.8995L12.2021 21.6689H10.3864L10.0788 20.9302V21.6689H6.60118L6.23199 20.6842H5.33944L4.93946 21.6689H3.15437V39.8563H39.8678V28.8083C39.4678 28.993 38.9136 29.0854 38.3597 29.0854H35.6823V28.7159C35.3747 28.9625 34.8206 29.0854 34.2977 29.0854H25.8655V27.7007C25.8655 27.516 25.8349 27.516 25.6808 27.516H25.5271V29.0854H22.7573V27.4544C22.296 27.6697 21.7726 27.6697 21.3111 27.6697H21.0032V29.0854H17.6182L16.8182 28.162L15.9259 29.0854H10.4785V23.054H16.0178L16.818 23.9768L17.6798 23.054H21.4034C21.834 23.054 22.542 23.1153 22.8497 23.4229V23.054H26.1731C26.5117 23.054 27.1582 23.1153 27.5888 23.4229V23.054H32.6049V23.4232C32.882 23.1769 33.4053 23.0542 33.8667 23.0542H36.667V23.4232C36.9751 23.2079 37.4056 23.0542 37.9598 23.0542H39.8678V2.98926Z" fill="#0077A6"></path>
</g>
</svg>
