<svg width="447" height="359" viewBox="0 0 447 359" fill="none" xmlns="http://www.w3.org/2000/svg">
<path d="M330.844 27.5803C332.539 23.7055 334.961 21.0416 337.867 19.5886C341.015 18.1356 346.828 17.4091 355.546 17.4091H362.811V0.457031H299.846V0.699203H299.604L207.337 251.831L196.197 223.013L113.374 0.457031H24.4968V17.4091H34.1837C42.9019 17.4091 48.9562 18.1356 52.3466 19.8308C55.9792 21.526 58.4009 23.9477 59.8539 27.3381C61.307 30.4863 62.0335 37.2672 62.0335 47.6806V231.005C62.0335 241.902 61.0648 249.168 59.3696 252.8C57.6744 256.675 54.7683 259.339 50.6514 261.518C46.5345 263.456 39.7536 264.424 30.3089 264.424H24.4968V281.376H123.303V264.424H117.006C107.562 264.424 100.781 263.456 97.1484 261.518C93.5158 259.581 90.8519 256.675 88.9146 253.285C87.2193 249.652 86.2506 242.871 86.2506 232.7V33.6346L178.76 281.376H198.861H222.109L290.159 99.5053V231.005C290.159 237.543 289.917 242.871 289.433 246.988C289.191 249.894 288.706 252.316 287.98 253.769C287.253 255.464 286.527 256.917 285.316 258.128C285.074 258.37 284.832 258.612 284.832 258.854C284.589 259.097 284.347 259.097 284.105 259.339C282.41 260.792 280.473 262.003 278.051 262.729C277.809 262.971 277.566 262.971 277.324 262.971C275.145 263.698 272.481 263.94 269.09 264.182C267.153 264.424 264.974 264.424 262.794 264.424H255.529V281.376H362.811V264.424H355.546C349.249 264.424 344.406 263.94 341.016 262.971C340.531 262.971 340.289 262.971 340.047 262.729C337.867 262.003 335.93 260.792 334.235 259.339C333.993 259.097 333.75 259.097 333.508 258.854C333.266 258.612 333.024 258.37 333.024 258.128C332.297 257.401 331.813 256.675 331.329 255.706C330.844 254.98 330.602 254.495 330.36 253.769C329.876 252.8 329.633 251.831 329.391 250.378C328.665 246.988 328.423 242.145 328.18 235.848C328.18 234.153 328.18 232.7 328.18 231.005V45.7432C328.18 37.2672 329.149 31.2129 330.844 27.5803Z" fill="#231F20" fill-opacity="0.4"></path>
<path d="M436.672 44.2907C432.071 39.2051 413.423 48.1654 389.691 85.2177C365.958 122.028 330.358 145.519 320.429 147.214C310.5 148.909 281.44 152.784 281.44 139.706C281.44 126.871 316.312 132.683 338.834 121.059C361.114 109.677 364.262 94.9046 364.505 83.0382C364.989 71.1718 354.818 79.6478 342.709 89.5768C330.843 99.2637 285.072 100.717 261.582 107.255C238.091 113.552 202.492 138.738 194.742 192.016C187.477 241.176 199.586 268.058 209.999 281.377H215.811C206.366 261.035 205.156 238.755 227.678 219.865C254.559 197.586 289.916 210.178 330.843 191.531C372.012 172.642 392.839 137.043 400.83 116.458C409.064 95.6311 416.814 85.4599 421.899 73.8357C426.985 62.4536 441.031 49.3763 436.672 44.2907Z" fill="#ED0F69" fill-opacity="0.4"></path>
<path d="M210 290.094C207.336 290.094 204.914 288.883 203.219 286.703C191.353 271.204 178.76 242.144 186.267 190.803C194.259 135.588 230.584 106.77 259.403 99.0203C268.848 96.3564 281.198 94.6612 294.033 92.7238C310.017 90.5442 331.812 87.396 337.382 82.7947C348.28 73.8344 354.819 68.7488 361.357 68.7488C364.505 68.7488 367.411 69.9596 369.591 72.1392C373.466 76.0139 373.224 81.5839 373.224 83.2791C372.981 86.9117 372.739 91.0286 371.528 95.3877C375.403 90.7864 379.036 85.943 382.426 80.373C401.073 51.5546 419.963 34.3604 433.282 34.3604C437.157 34.3604 440.79 36.0556 442.969 38.7195C450.234 46.9533 443.211 56.8823 437.157 65.6005C434.251 69.7174 431.345 73.8344 429.892 77.467C427.712 82.0682 425.291 86.6695 422.385 91.5129C418.268 99.0203 413.666 107.254 408.823 119.605C402.284 136.315 381.7 177.726 334.476 199.279C314.376 208.482 295.729 210.419 279.019 212.357C260.372 214.536 245.599 215.989 233.248 226.645C216.781 240.206 213.632 256.674 223.561 277.743C224.772 280.407 224.772 283.555 223.077 285.977C221.624 288.641 218.718 290.094 215.812 290.094H210Z" fill="white" fill-opacity="0.4"></path>
<path d="M436.672 44.2907C432.071 39.2051 413.423 48.1654 389.691 85.2177C365.958 122.028 330.358 145.519 320.429 147.214C310.5 148.909 281.44 152.784 281.44 139.706C281.44 126.871 316.312 132.683 338.834 121.059C361.114 109.677 364.262 94.9046 364.505 83.0382C364.989 71.1718 354.818 79.6478 342.709 89.5768C330.843 99.2637 285.072 100.717 261.582 107.255C238.091 113.552 202.492 138.738 194.742 192.016C187.477 241.176 199.586 268.058 209.999 281.377H215.811C206.366 261.035 205.156 238.755 227.678 219.865C254.559 197.586 289.916 210.178 330.843 191.531C372.012 172.642 392.839 137.043 400.83 116.458C409.064 95.6311 416.814 85.4599 421.899 73.8357C426.985 62.4536 441.031 49.3763 436.672 44.2907Z" fill="#ED0F69" fill-opacity="0.4"></path>
<path d="M10.2089 312.619H16.5053L24.7392 352.093L49.6829 312.619H56.4637L47.019 357.421H42.6599L51.3781 317.463H51.1359L25.4657 357.421H21.8331L13.3571 317.463L4.88108 357.421H0.76416L10.2089 312.619Z" fill="#231F20" fill-opacity="0.4"></path>
<path d="M67.3609 354.755C74.8682 354.755 78.2586 347.974 79.2273 341.193C78.0164 341.193 76.5634 340.951 75.3525 340.951C69.7826 340.951 61.0644 341.92 61.0644 348.943C61.0644 352.817 63.9705 354.755 67.3609 354.755ZM81.8912 349.669C81.1647 352.333 80.6803 355.239 80.6803 357.419H76.5634C76.8056 355.724 76.8056 354.028 77.2899 352.817H77.0477C74.3839 356.934 70.7513 358.387 65.9078 358.387C60.8222 358.387 56.4631 354.513 56.4631 349.185C56.4631 339.498 67.3609 337.561 75.3525 337.561C77.0477 337.561 78.5008 337.561 79.7116 337.803C79.9538 336.834 79.9538 335.865 79.9538 334.412C79.9538 330.053 77.5321 327.389 72.9308 327.389C69.2982 327.389 65.4235 329.085 63.2439 330.295L63.7283 326.179C66.15 325.21 69.7826 323.999 73.6573 323.999C80.6803 323.999 84.3129 327.874 84.3129 334.655C84.3129 335.865 84.0707 338.287 83.5864 340.951L81.8912 349.669Z" fill="#231F20" fill-opacity="0.4"></path>
<path d="M87.9455 352.575C90.3672 353.786 93.0311 354.755 95.9372 354.755C99.8119 354.755 105.14 353.302 105.14 348.216C105.14 341.193 92.0624 341.435 92.0624 333.202C92.0624 326.663 99.0854 323.999 104.413 323.999C107.319 323.999 109.983 324.483 112.647 325.694L111.436 329.327C109.257 328.116 106.593 327.389 104.171 327.389C101.023 327.389 96.4215 328.358 96.4215 332.959C96.4215 338.529 109.499 339.256 109.499 347.974C109.499 355.481 102.718 358.387 96.4215 358.387C93.0311 358.387 89.8829 357.903 86.7346 356.45L87.9455 352.575Z" fill="#231F20" fill-opacity="0.4"></path>
<path d="M128.873 354.755C137.349 354.755 142.192 345.794 142.192 338.045C142.192 331.991 139.286 327.389 132.99 327.389C124.029 327.389 119.67 336.35 119.67 344.584C119.67 350.396 123.061 354.755 128.873 354.755ZM133.474 323.999C141.95 323.999 146.551 329.569 146.551 338.045C146.551 348.943 139.771 358.387 128.389 358.387C120.397 358.387 115.311 352.091 115.311 344.099C115.311 332.959 122.334 323.999 133.474 323.999Z" fill="#231F20" fill-opacity="0.4"></path>
<path d="M164.714 354.755C173.19 354.755 178.034 345.794 178.034 338.045C178.034 331.991 175.128 327.389 168.831 327.389C159.629 327.389 155.512 336.35 155.512 344.584C155.512 350.396 158.902 354.755 164.714 354.755ZM169.316 323.999C177.55 323.999 182.393 329.569 182.393 338.045C182.393 348.943 175.37 358.387 164.23 358.387C155.996 358.387 151.153 352.091 151.153 344.099C151.153 332.959 158.176 323.999 169.316 323.999Z" fill="#231F20" fill-opacity="0.4"></path>
<path d="M191.595 330.295C192.079 328.6 192.321 326.421 192.563 324.726H196.68C196.438 326.905 196.196 328.6 195.954 329.811C199.102 325.694 201.766 323.999 206.125 323.999C210.726 323.999 214.117 326.663 214.359 331.264H214.601C216.538 326.663 220.413 323.999 225.741 323.999C231.311 323.999 234.943 327.632 234.943 333.686C234.943 334.897 234.459 337.318 233.975 339.74L230.1 357.661H225.983L229.616 340.225C230.1 338.287 230.584 336.35 230.584 333.928C230.584 330.295 228.889 327.389 225.014 327.389C218.234 327.389 214.843 334.897 213.632 340.951L210.242 357.661H206.125L209.758 340.225C210.242 338.287 210.484 336.35 210.484 333.928C210.484 330.295 209.031 327.389 205.156 327.389C198.375 327.389 194.985 334.897 193.774 340.951L190.384 357.661H186.025L191.595 330.295Z" fill="#231F20" fill-opacity="0.4"></path>
<path d="M262.31 312.619H294.034L293.308 316.494H279.504L271.028 357.421H266.427L275.145 316.494H261.341L262.31 312.619Z" fill="#231F20" fill-opacity="0.4"></path>
<path d="M289.433 330.538C289.675 328.842 290.159 326.905 290.401 324.726H294.276C294.034 326.905 294.034 328.6 293.55 329.811H293.792C295.729 326.421 298.635 323.999 302.994 323.999C304.205 323.999 305.416 324.241 306.385 324.483L305.416 328.842C304.447 328.358 303.237 328.116 302.026 328.116C295.245 328.116 292.823 335.381 291.612 341.435L288.222 357.661H283.863L289.433 330.538Z" fill="#231F20" fill-opacity="0.4"></path>
<path d="M332.054 352.335C331.812 354.515 331.57 355.968 331.328 357.421H327.211C327.453 355.483 327.695 353.788 327.937 352.577C325.516 355.968 321.399 358.389 317.524 358.389C311.47 358.389 307.111 354.999 307.111 348.703C307.111 346.523 307.595 344.101 308.079 341.922L311.712 324.728H316.071L312.196 342.89C311.954 344.828 311.47 346.281 311.47 348.46C311.47 352.335 313.891 354.757 318.008 354.757C325.031 354.757 328.664 347.734 330.359 340.227L333.507 324.728H337.866L332.054 352.335Z" fill="#231F20" fill-opacity="0.4"></path>
<path d="M339.561 352.575C341.983 353.786 344.647 354.755 347.311 354.755C351.186 354.755 356.513 353.302 356.513 348.216C356.513 341.193 343.678 341.435 343.678 333.202C343.678 326.663 350.459 323.999 355.787 323.999C358.693 323.999 361.599 324.483 364.263 325.694L362.81 329.327C360.873 328.116 358.209 327.389 355.545 327.389C352.397 327.389 348.037 328.358 348.037 332.959C348.037 338.529 361.115 339.256 361.115 347.974C361.115 355.481 354.334 358.387 347.795 358.387C344.405 358.387 341.499 357.903 338.351 356.45L339.561 352.575Z" fill="#231F20" fill-opacity="0.4"></path>
<path d="M377.099 317.46L381.7 315.765L379.763 324.725H388.239L387.512 328.115H379.036L375.646 344.341C375.161 346.52 374.677 348.7 374.677 350.88C374.677 353.543 375.888 354.754 378.31 354.754C379.521 354.754 380.731 354.512 381.7 354.028L381.458 357.418C380.247 357.903 379.036 358.387 377.341 358.387C372.74 358.387 370.076 355.723 370.076 352.09C370.076 349.427 371.287 344.099 371.529 342.646L374.677 328.115H368.138L369.107 324.725H375.646L377.099 317.46Z" fill="#231F20" fill-opacity="0.4"></path>
</svg>
