<svg width="190" height="199" viewBox="0 0 190 199" fill="none" xmlns="http://www.w3.org/2000/svg">
<mask id="mask0_589_77" style="mask-type: luminance" maskUnits="userSpaceOnUse" x="-9" y="0" width="199" height="199">
<path d="M-9 0V198.934H190V0H-9Z" fill="white"></path>
</mask>
<g mask="url('#mask0_589_77')">
<path d="M127.821 57.8697C128.285 56.8091 128.948 56.0799 129.743 55.6822C130.605 55.2844 132.196 55.0856 134.583 55.0856H136.571V50.4453H119.336V50.5116H119.27L94.0136 119.253L90.9643 111.365L68.2934 50.4453H43.9653V55.0856H46.6169C49.0033 55.0856 50.6605 55.2844 51.5886 55.7484C52.5829 56.2125 53.2458 56.8754 53.6435 57.8034C54.0413 58.6652 54.2401 60.5213 54.2401 63.3717V113.553C54.2401 116.536 53.975 118.524 53.511 119.519C53.0469 120.579 52.2515 121.308 51.1246 121.905C49.9976 122.435 48.1415 122.7 45.5563 122.7H43.9653V127.341H71.0113V122.7H69.2878C66.7025 122.7 64.8464 122.435 63.8521 121.905C62.8577 121.375 62.1286 120.579 61.5982 119.651C61.1342 118.657 60.8691 116.801 60.8691 114.017V59.5269L86.1915 127.341H91.6935H98.0573L116.685 77.5576V113.553C116.685 115.342 116.618 116.801 116.486 117.928C116.419 118.723 116.287 119.386 116.088 119.784C115.889 120.248 115.69 120.646 115.359 120.977C115.292 121.043 115.226 121.11 115.226 121.176C115.16 121.242 115.094 121.242 115.027 121.308C114.563 121.706 114.033 122.038 113.37 122.236C113.304 122.303 113.237 122.303 113.171 122.303C112.575 122.502 111.845 122.568 110.917 122.634C110.387 122.7 109.79 122.7 109.194 122.7H107.205V127.341H136.571V122.7H134.583C132.859 122.7 131.533 122.568 130.605 122.303C130.473 122.303 130.406 122.303 130.34 122.236C129.743 122.038 129.213 121.706 128.749 121.308C128.683 121.242 128.617 121.242 128.55 121.176C128.484 121.11 128.418 121.043 128.418 120.977C128.219 120.778 128.086 120.579 127.954 120.314C127.821 120.115 127.755 119.983 127.689 119.784C127.556 119.519 127.49 119.253 127.423 118.856C127.224 117.928 127.158 116.602 127.092 114.878C127.092 114.414 127.092 114.017 127.092 113.553V62.8414C127.092 60.5213 127.357 58.864 127.821 57.8697Z" fill="#231F20"></path>
<path d="M156.789 62.4438C155.53 61.0517 150.425 63.5044 143.929 73.6466C137.433 83.7226 127.688 90.1526 124.97 90.6167C122.253 91.0807 114.298 92.1413 114.298 88.5617C114.298 85.0484 123.844 86.6393 130.008 83.4574C136.107 80.3418 136.969 76.2982 137.035 73.05C137.168 69.8019 134.383 72.122 131.069 74.8398C127.821 77.4914 115.292 77.8891 108.862 79.679C102.432 81.4025 92.6876 88.2965 90.5664 102.88C88.5777 116.337 91.8922 123.695 94.7426 127.341H96.3335C93.7483 121.773 93.4168 115.674 99.5817 110.503C106.94 104.405 116.618 107.852 127.821 102.748C139.09 97.577 144.791 87.8325 146.978 82.1979C149.232 76.4971 151.354 73.7129 152.746 70.5311C154.138 67.4155 157.982 63.8359 156.789 62.4438Z" fill="#ED0F69"></path>
<path d="M94.7426 129.727C94.0134 129.727 93.3505 129.395 92.8865 128.799C89.6383 124.556 86.1913 116.602 88.2462 102.548C90.4338 87.4345 100.377 79.546 108.266 77.4248C110.851 76.6956 114.232 76.2316 117.745 75.7013C122.12 75.1047 128.086 74.2429 129.611 72.9834C132.594 70.5307 134.383 69.1386 136.173 69.1386C137.035 69.1386 137.831 69.4701 138.427 70.0667C139.488 71.1273 139.421 72.652 139.421 73.116C139.355 74.1103 139.289 75.2372 138.957 76.4305C140.018 75.171 141.012 73.8452 141.94 72.3205C147.045 64.4321 152.215 59.7256 155.861 59.7256C156.922 59.7256 157.916 60.1896 158.513 60.9188C160.501 63.1726 158.579 65.8905 156.922 68.2769C156.126 69.4038 155.331 70.5307 154.933 71.5251C154.336 72.7846 153.674 74.044 152.878 75.3698C151.751 77.4248 150.492 79.6786 149.166 83.0594C147.376 87.6333 141.742 98.9688 128.815 104.868C123.313 107.387 118.209 107.918 113.635 108.448C108.531 109.045 104.487 109.442 101.106 112.359C96.5987 116.071 95.7369 120.579 98.4547 126.346C98.7862 127.075 98.7862 127.937 98.3222 128.6C97.9244 129.329 97.129 129.727 96.3335 129.727H94.7426Z" fill="white"></path>
<path d="M156.789 62.4438C155.53 61.0517 150.425 63.5044 143.929 73.6466C137.433 83.7226 127.688 90.1526 124.97 90.6167C122.253 91.0807 114.298 92.1413 114.298 88.5617C114.298 85.0484 123.844 86.6393 130.008 83.4574C136.107 80.3418 136.969 76.2982 137.035 73.05C137.168 69.8019 134.383 72.122 131.069 74.8398C127.821 77.4914 115.292 77.8891 108.862 79.679C102.432 81.4025 92.6876 88.2965 90.5664 102.88C88.5777 116.337 91.8922 123.695 94.7426 127.341H96.3335C93.7483 121.773 93.4168 115.674 99.5817 110.503C106.94 104.405 116.618 107.852 127.821 102.748C139.09 97.577 144.791 87.8325 146.978 82.1979C149.232 76.4971 151.354 73.7129 152.746 70.5311C154.138 67.4155 157.982 63.8359 156.789 62.4438Z" fill="#ED0F69"></path>
<path d="M40.0544 135.893H41.7779L44.0317 146.698L50.8595 135.893H52.7156L50.1303 148.156H48.9371L51.3235 137.218H51.2573L44.2306 148.156H43.2363L40.9162 137.218L38.596 148.156H37.4691L40.0544 135.893Z" fill="#231F20"></path>
<path d="M55.6985 147.427C57.7534 147.427 58.6815 145.57 58.9466 143.714C58.6152 143.714 58.2175 143.648 57.886 143.648C56.3614 143.648 53.9749 143.913 53.9749 145.836C53.9749 146.896 54.7704 147.427 55.6985 147.427ZM59.6758 146.034C59.4769 146.764 59.3444 147.559 59.3444 148.156H58.2175C58.2837 147.692 58.2837 147.228 58.4163 146.896H58.35C57.6209 148.023 56.6265 148.421 55.3007 148.421C53.9087 148.421 52.7155 147.36 52.7155 145.902C52.7155 143.25 55.6985 142.72 57.886 142.72C58.35 142.72 58.7478 142.72 59.0792 142.786C59.1455 142.521 59.1455 142.256 59.1455 141.858C59.1455 140.665 58.4826 139.936 57.2231 139.936C56.2288 139.936 55.1682 140.4 54.5715 140.731L54.7041 139.604C55.367 139.339 56.3614 139.008 57.422 139.008C59.3444 139.008 60.3387 140.068 60.3387 141.925C60.3387 142.256 60.2724 142.919 60.1398 143.648L59.6758 146.034Z" fill="#231F20"></path>
<path d="M61.333 146.83C61.9959 147.161 62.7251 147.427 63.5206 147.427C64.5812 147.427 66.0396 147.029 66.0396 145.637C66.0396 143.714 62.4599 143.781 62.4599 141.527C62.4599 139.737 64.3823 139.008 65.8407 139.008C66.6362 139.008 67.3653 139.14 68.0945 139.472L67.7631 140.466C67.1665 140.135 66.4373 139.936 65.7744 139.936C64.9126 139.936 63.6532 140.201 63.6532 141.461C63.6532 142.985 67.2328 143.184 67.2328 145.57C67.2328 147.625 65.3767 148.421 63.6532 148.421C62.7251 148.421 61.8633 148.288 61.0016 147.891L61.333 146.83Z" fill="#231F20"></path>
<path d="M72.536 147.427C74.8562 147.427 76.1819 144.974 76.1819 142.853C76.1819 141.195 75.3865 139.936 73.663 139.936C71.2103 139.936 70.0171 142.389 70.0171 144.642C70.0171 146.233 70.9451 147.427 72.536 147.427ZM73.7955 139.008C76.1157 139.008 77.3752 140.532 77.3752 142.853C77.3752 145.836 75.5191 148.421 72.4035 148.421C70.2159 148.421 68.8239 146.697 68.8239 144.51C68.8239 141.461 70.7462 139.008 73.7955 139.008Z" fill="#231F20"></path>
<path d="M82.3468 147.427C84.667 147.427 85.9927 144.974 85.9927 142.853C85.9927 141.195 85.1973 139.936 83.4738 139.936C80.9548 139.936 79.8278 142.389 79.8278 144.642C79.8278 146.233 80.7559 147.427 82.3468 147.427ZM83.6063 139.008C85.8602 139.008 87.1859 140.532 87.1859 142.853C87.1859 145.836 85.2636 148.421 82.2143 148.421C79.9604 148.421 78.6346 146.697 78.6346 144.51C78.6346 141.461 80.557 139.008 83.6063 139.008Z" fill="#231F20"></path>
<path d="M89.7047 140.731C89.8373 140.267 89.9036 139.671 89.9699 139.207H91.0968C91.0305 139.803 90.9642 140.267 90.8979 140.599C91.7597 139.472 92.4888 139.008 93.6821 139.008C94.9415 139.008 95.8696 139.737 95.9359 140.996H96.0022C96.5325 139.737 97.5931 139.008 99.0515 139.008C100.576 139.008 101.57 140.002 101.57 141.659C101.57 141.991 101.438 142.654 101.305 143.317L100.245 148.222H99.1178L100.112 143.449C100.245 142.919 100.377 142.389 100.377 141.726C100.377 140.731 99.9132 139.936 98.8526 139.936C96.9965 139.936 96.0685 141.991 95.737 143.648L94.809 148.222H93.6821L94.6764 143.449C94.809 142.919 94.8753 142.389 94.8753 141.726C94.8753 140.731 94.4775 139.936 93.4169 139.936C91.5608 139.936 90.6328 141.991 90.3013 143.648L89.3733 148.222H88.1801L89.7047 140.731Z" fill="#231F20"></path>
<path d="M109.061 135.893H117.745L117.546 136.953H113.768L111.448 148.156H110.188L112.575 136.953H108.796L109.061 135.893Z" fill="#231F20"></path>
<path d="M116.486 140.798C116.552 140.334 116.685 139.803 116.751 139.207H117.811C117.745 139.803 117.745 140.267 117.613 140.599H117.679C118.209 139.671 119.005 139.008 120.198 139.008C120.529 139.008 120.861 139.074 121.126 139.14L120.861 140.334C120.596 140.201 120.264 140.135 119.933 140.135C118.077 140.135 117.414 142.123 117.082 143.781L116.154 148.222H114.961L116.486 140.798Z" fill="#231F20"></path>
<path d="M128.152 146.764C128.086 147.361 128.02 147.758 127.953 148.156H126.827C126.893 147.626 126.959 147.162 127.025 146.83C126.363 147.758 125.236 148.421 124.175 148.421C122.518 148.421 121.325 147.493 121.325 145.77C121.325 145.173 121.457 144.51 121.59 143.914L122.584 139.207H123.777L122.717 144.179C122.65 144.709 122.518 145.107 122.518 145.703C122.518 146.764 123.181 147.427 124.308 147.427C126.23 147.427 127.224 145.505 127.688 143.45L128.55 139.207H129.743L128.152 146.764Z" fill="#231F20"></path>
<path d="M130.207 146.83C130.87 147.161 131.599 147.427 132.329 147.427C133.389 147.427 134.848 147.029 134.848 145.637C134.848 143.714 131.334 143.781 131.334 141.527C131.334 139.737 133.19 139.008 134.649 139.008C135.444 139.008 136.24 139.14 136.969 139.472L136.571 140.466C136.041 140.135 135.312 139.936 134.582 139.936C133.721 139.936 132.527 140.201 132.527 141.461C132.527 142.985 136.107 143.184 136.107 145.57C136.107 147.625 134.251 148.421 132.461 148.421C131.533 148.421 130.738 148.288 129.876 147.891L130.207 146.83Z" fill="#231F20"></path>
<path d="M140.482 137.218L141.742 136.754L141.212 139.207H143.532L143.333 140.135H141.013L140.085 144.576C139.952 145.173 139.819 145.769 139.819 146.366C139.819 147.095 140.151 147.426 140.814 147.426C141.145 147.426 141.477 147.36 141.742 147.228L141.676 148.156C141.344 148.288 141.013 148.421 140.549 148.421C139.289 148.421 138.56 147.692 138.56 146.697C138.56 145.968 138.891 144.51 138.958 144.112L139.819 140.135H138.03L138.295 139.207H140.085L140.482 137.218Z" fill="#231F20"></path>
</g>
</svg>
