<svg width="50" height="51" viewBox="0 0 50 51" fill="none" xmlns="http://www.w3.org/2000/svg">
<g id="ph:instagram-logo-fill">
<path id="Vector" d="M31.25 25.75C31.25 26.9861 30.8834 28.1945 30.1967 29.2223C29.5099 30.2501 28.5338 31.0512 27.3918 31.5242C26.2497 31.9973 24.9931 32.1211 23.7807 31.8799C22.5683 31.6388 21.4547 31.0435 20.5806 30.1694C19.7065 29.2953 19.1112 28.1817 18.8701 26.9693C18.6289 25.7569 18.7527 24.5003 19.2258 23.3582C19.6988 22.2162 20.4999 21.2401 21.5277 20.5533C22.5555 19.8666 23.7639 19.5 25 19.5C26.656 19.5052 28.2427 20.1653 29.4137 21.3363C30.5847 22.5073 31.2448 24.094 31.25 25.75ZM44.5312 17.1562V34.3438C44.5312 37.2446 43.3789 40.0266 41.3277 42.0777C39.2766 44.1289 36.4946 45.2812 33.5938 45.2812H16.4062C13.5054 45.2812 10.7234 44.1289 8.67227 42.0777C6.62109 40.0266 5.46875 37.2446 5.46875 34.3438V17.1562C5.46875 14.2554 6.62109 11.4734 8.67227 9.42227C10.7234 7.37109 13.5054 6.21875 16.4062 6.21875H33.5938C36.4946 6.21875 39.2766 7.37109 41.3277 9.42227C43.3789 11.4734 44.5312 14.2554 44.5312 17.1562ZM34.375 25.75C34.375 23.8958 33.8252 22.0832 32.795 20.5415C31.7649 18.9998 30.3007 17.7982 28.5877 17.0886C26.8746 16.3791 24.9896 16.1934 23.171 16.5551C21.3525 16.9169 19.682 17.8098 18.3709 19.1209C17.0598 20.432 16.1669 22.1025 15.8051 23.921C15.4434 25.7396 15.6291 27.6246 16.3386 29.3377C17.0482 31.0507 18.2498 32.5149 19.7915 33.545C21.3332 34.5752 23.1458 35.125 25 35.125C27.4864 35.125 29.871 34.1373 31.6291 32.3791C33.3873 30.621 34.375 28.2364 34.375 25.75ZM37.5 15.5938C37.5 15.1302 37.3625 14.6771 37.105 14.2916C36.8475 13.9062 36.4814 13.6058 36.0532 13.4284C35.6249 13.251 35.1537 13.2046 34.699 13.295C34.2444 13.3855 33.8267 13.6087 33.499 13.9365C33.1712 14.2642 32.948 14.6819 32.8575 15.1365C32.7671 15.5911 32.8135 16.0624 32.9909 16.4907C33.1683 16.9189 33.4687 17.285 33.8541 17.5425C34.2396 17.8 34.6927 17.9375 35.1562 17.9375C35.7779 17.9375 36.374 17.6906 36.8135 17.251C37.2531 16.8115 37.5 16.2154 37.5 15.5938Z" fill="black"></path>
</g>
</svg>
