<svg width="48" height="51" viewBox="0 0 48 51" fill="none" xmlns="http://www.w3.org/2000/svg">
<g id="uil:youtube">
<path id="Vector" d="M45.9166 20.9788C46.0197 17.9968 45.3675 15.0371 44.0208 12.3746C43.1071 11.2821 41.839 10.5448 40.4375 10.2913C34.6406 9.76528 28.8198 9.54969 23 9.64543C17.2013 9.54535 11.4015 9.75398 5.62498 10.2704C4.48293 10.4782 3.42605 11.0139 2.58331 11.8121C0.708308 13.5413 0.499975 16.4996 0.291641 18.9996C-0.0106252 23.4945 -0.0106252 28.0047 0.291641 32.4996C0.351912 33.9067 0.56142 35.3034 0.916641 36.6663C1.16784 37.7185 1.67606 38.692 2.39581 39.4996C3.24428 40.3401 4.32578 40.9063 5.49997 41.1246C9.99147 41.679 14.5171 41.9088 19.0416 41.8121C26.3333 41.9163 32.7291 41.8121 40.2916 41.2288C41.4947 41.0239 42.6066 40.457 43.4791 39.6038C44.0624 39.0203 44.4981 38.3061 44.75 37.5204C45.495 35.2342 45.861 32.8415 45.8333 30.4371C45.9166 29.2704 45.9166 22.2288 45.9166 20.9788ZM18.2916 31.6871V18.7913L30.625 25.2704C27.1666 27.1871 22.6041 29.3538 18.2916 31.6871Z" fill="black"></path>
</g>
</svg>
