<svg width="70" height="70" viewBox="0 0 70 70" fill="none" xmlns="http://www.w3.org/2000/svg">
<g id="footsteps-silhouette-variant 3" clip-path="url(#clip0_201_297)">
<g id="Group">
<path id="Vector" d="M68.6516 16.8767C68.0885 14.2933 66.1892 12.2334 63.4149 11.1886C61.2601 10.3789 59.0696 10.0124 55.0426 9.7854C52.009 9.6153 49.2223 9.97929 44.713 11.1256C39.267 12.4963 34.9266 14.4056 33.3072 16.0991L32.8694 16.5731L33.8482 20.4402C34.3931 22.5542 35.0364 25.11 35.2747 26.1003C35.9199 28.8438 35.9199 28.8438 38.1264 29.4651C42.8355 30.7986 50.0157 31.0737 54.6341 30.1141C57.6996 29.4655 60.1865 28.6484 62.322 27.5801C65.592 25.9367 67.6901 23.8358 68.5099 21.3723C68.8481 20.3358 68.9324 18.0946 68.6516 16.8767Z" fill="black"/>
<path id="Vector_2" d="M53.0937 48.6434C52.8908 47.1832 51.8799 45.4093 50.4571 44.0287C48.2215 41.8783 44.5288 40.2393 39.6082 39.2165C36.8522 38.6411 35.174 38.5242 31.5264 38.6555C27.2484 38.8068 24.6633 39.2089 21.8289 40.1503C20.1442 40.7042 20.1045 40.7583 19.6799 42.52C19.526 43.2058 18.9091 45.8416 18.318 48.3832L17.2518 52.9822L17.7262 53.4603C19.7462 55.519 25.9137 57.7766 32.6062 58.9018C36.5168 59.5593 38.9049 59.575 43.272 58.9534C48.7643 58.1725 52.0285 55.9657 52.9047 52.4553C53.1365 51.5138 53.225 49.675 53.0937 48.6434Z" fill="black"/>
<path id="Vector_3" d="M33.0679 28.0685C32.8749 27.5607 32.0706 25.0066 31.2657 22.3988C30.4742 19.7909 29.8082 17.6379 29.7812 17.6247C29.6999 17.5451 26.606 18.0329 25.5354 18.2988C21.1327 19.3636 18.0285 21.4749 16.7824 24.2378C15.7725 26.4886 16.295 29.0322 18.1372 30.7573C21.2796 33.6764 26.7098 33.3792 32.2559 29.9952C32.8958 29.5996 33.4151 29.2187 33.4143 29.1382C33.4136 29.0711 33.2476 28.5898 33.0679 28.0685Z" fill="black"/>
<path id="Vector_4" d="M16.7276 39.8269C14.6347 38.5068 11.6583 37.3836 9.50879 37.0837C4.96809 36.4729 1.12769 38.7393 0.534677 42.3944C0.0303306 45.5388 2.46477 48.7604 6.64103 50.4615C8.31153 51.142 11.2024 51.7831 13.4852 51.9877L14.1567 52.0613L15.309 47.998C15.9434 45.7645 16.6944 43.1274 17.0063 42.1449L17.5513 40.3416L16.7276 39.8269Z" fill="black"/>
</g>
</g>
<defs>
<clipPath id="clip0_201_297">
<rect width="68.6837" height="68.6837" fill="white" transform="translate(68.6797) rotate(89.412)"/>
</clipPath>
</defs>
</svg>
