<svg width="96" height="96" viewBox="0 0 96 96" fill="none" xmlns="http://www.w3.org/2000/svg">
<g id="footsteps-silhouette-variant 14" clip-path="url(#clip0_201_351)">
<g id="Group">
<path id="Vector" d="M85.7866 52.7423C86.8132 50.3056 86.4459 47.5279 84.7787 45.0766C83.4828 43.1742 81.9026 41.6135 78.7404 39.1099C76.3576 37.2245 73.8694 35.9181 69.5223 34.2598C64.28 32.2456 59.6318 31.3084 57.3328 31.7611L56.7019 31.8967L55.2762 35.6222C54.5049 37.6645 53.5598 40.1247 53.1845 41.0716C52.1329 43.6865 52.1329 43.6865 53.5796 45.4647C56.6626 49.2658 62.3755 53.6238 66.7045 55.4977C69.5845 56.7319 72.0884 57.4954 74.4496 57.8511C78.0694 58.3895 80.9944 57.8793 83.0829 56.3368C83.956 55.684 85.3151 53.8998 85.7866 52.7423Z" fill="black"/>
<path id="Vector_2" d="M54.7789 69.762C55.4536 68.4513 55.6481 66.4188 55.2794 64.4709C54.6891 61.4256 52.6131 57.9597 49.1782 54.291C47.2557 52.234 45.9508 51.1724 42.8925 49.1801C39.3073 46.8412 36.962 45.682 34.1024 44.8202C32.406 44.3034 32.3424 44.3247 30.981 45.5209C30.4604 45.9931 28.4387 47.7932 26.4924 49.5313L22.9731 52.6782L23.0859 53.3422C23.5526 56.1884 27.2963 61.5847 32.121 66.3572C34.9403 69.1459 36.8841 70.5335 40.8129 72.539C45.7535 75.0621 49.6929 75.1365 52.4302 72.7703C53.1617 72.1339 54.2925 70.6812 54.7789 69.762Z" fill="black"/>
<path id="Vector_3" d="M50.2472 41.4104C50.3817 40.8841 51.1942 38.3326 52.0372 35.7369C52.8912 33.1488 53.5859 31.0048 53.5714 30.9786C53.5508 30.8666 50.74 29.4846 49.7116 29.0858C45.4985 27.422 41.7449 27.3616 39.1355 28.9036C37.0141 30.1627 35.9772 32.5434 36.4905 35.0145C37.3797 39.2103 41.9911 42.0931 48.4741 42.5185C49.2251 42.5634 49.869 42.5508 49.9147 42.4845C49.9527 42.4292 50.0941 41.9402 50.2472 41.4104Z" fill="black"/>
<path id="Vector_4" d="M30.1171 41.6199C29.1655 39.3357 27.3783 36.7039 25.7932 35.2213C22.4318 32.1081 17.9869 31.7507 15.398 34.3982C13.1755 36.6791 13.3118 40.7147 15.7475 44.5097C16.7218 46.0278 18.7167 48.2161 20.4655 49.6974L20.9722 50.1442L24.2534 47.4849C26.0579 46.0237 28.19 44.2996 29.0106 43.6757L30.4942 42.5149L30.1171 41.6199Z" fill="black"/>
</g>
</g>
<defs>
<clipPath id="clip0_201_351">
<rect width="68.6837" height="68.6837" fill="white" transform="translate(95.5244 38.958) rotate(124.556)"/>
</clipPath>
</defs>
</svg>
