<svg width="69" height="69" viewBox="0 0 69 69" fill="none" xmlns="http://www.w3.org/2000/svg">
<g id="footsteps-silhouette-variant 21" clip-path="url(#clip0_201_381)">
<g id="Group">
<path id="Vector" d="M68.7988 51.808C68.2622 54.3971 66.3842 56.4764 63.6207 57.5495C61.4744 58.3813 59.2877 58.7703 55.2633 59.0386C52.2316 59.2398 49.4413 58.9044 44.9205 57.8044C39.4607 56.4898 35.1009 54.6251 33.4643 52.9483L33.0216 52.4787L33.9606 48.6019C34.4838 46.4823 35.1009 43.9201 35.3289 42.9274C35.946 40.1774 35.946 40.1774 38.1461 39.5335C42.8412 38.1518 50.0181 37.803 54.6462 38.7152C57.7182 39.3323 60.2134 40.1237 62.3597 41.1701C65.6464 42.7799 67.7659 44.8592 68.611 47.3141C68.9598 48.347 69.0671 50.5873 68.7988 51.808Z" fill="black"/>
<path id="Vector_2" d="M52.9157 20.2027C52.7279 21.6649 51.7352 23.449 50.3266 24.8442C48.1132 27.0174 44.4375 28.6942 39.5277 29.7674C36.7777 30.3711 35.1008 30.5052 31.452 30.4113C27.1727 30.304 24.5836 29.9284 21.7397 29.0162C20.0495 28.4796 20.0092 28.4259 19.5665 26.6686C19.4055 25.9844 18.7616 23.3551 18.1446 20.8197L17.0311 16.2319L17.5006 15.7489C19.4994 13.6697 25.6434 11.3489 32.324 10.155C36.2277 9.45741 38.6155 9.41717 42.9887 9.994C48.4888 10.7184 51.7754 12.8916 52.6876 16.3929C52.9291 17.3319 53.0364 19.1697 52.9157 20.2027Z" fill="black"/>
<path id="Vector_3" d="M33.102 40.9824C32.9142 41.4922 32.1362 44.0544 31.3581 46.6703C30.5935 49.2862 29.9496 51.4459 29.9227 51.4594C29.8422 51.5398 26.7434 51.0837 25.6702 50.8289C21.2568 49.8093 18.1311 47.73 16.8567 44.98C15.8238 42.7397 16.3201 40.1909 18.1445 38.447C21.2568 35.4958 26.6898 35.7372 32.2703 39.0641C32.9142 39.4531 33.4374 39.8287 33.4374 39.9092C33.4374 39.9763 33.2764 40.4592 33.102 40.9824Z" fill="black"/>
<path id="Vector_4" d="M16.6421 29.392C14.5629 30.7335 11.5982 31.8872 9.45182 32.2091C4.91763 32.8664 1.05417 30.6396 0.423674 26.9908C-0.112918 23.8517 2.28833 20.6053 6.44691 18.8614C8.11034 18.1638 10.9945 17.4931 13.275 17.265L13.9458 17.1846L15.1397 21.2358C15.797 23.4627 16.5751 26.092 16.897 27.0712L17.4604 28.8688L16.6421 29.392Z" fill="black"/>
</g>
</g>
<defs>
<clipPath id="clip0_201_381">
<rect width="68.6837" height="68.6837" fill="white" transform="matrix(0 -1 -1 0 69 68.6836)"/>
</clipPath>
</defs>
</svg>
