<svg width="97" height="97" viewBox="0 0 97 97" fill="none" xmlns="http://www.w3.org/2000/svg">
<g id="footsteps-silhouette-variant 15" clip-path="url(#clip0_201_399)">
<g id="Group">
<path id="Vector" d="M39.4423 85.7078C41.7563 86.987 44.5573 86.9163 47.1716 85.5184C49.2007 84.4315 50.9201 83.0258 53.745 80.1468C55.8723 77.9775 57.4353 75.6418 59.5452 71.495C62.1039 66.4959 63.5287 61.9733 63.3224 59.6392L63.2545 58.9975L59.7011 57.1849C57.7521 56.2013 55.406 55.0006 54.5042 54.5271C52.0156 53.2041 52.0156 53.2041 50.094 54.4541C45.9874 57.1167 41.0482 62.3352 38.7258 66.4411C37.1932 69.174 36.1685 71.5828 35.5644 73.893C34.6452 77.4353 34.8424 80.3979 36.1547 82.6382C36.7113 83.5756 38.3412 85.1162 39.4423 85.7078Z" fill="black"/>
<path id="Vector_2" d="M25.8061 53.0703C27.038 53.8802 29.0383 54.2891 31.0144 54.129C34.1051 53.865 37.7716 52.1682 41.7838 49.1417C44.0331 47.4482 45.2271 46.2632 47.5325 43.4334C50.2383 40.1164 51.6397 37.9073 52.7999 35.1552C53.4937 33.5231 53.4792 33.4576 52.4341 31.9771C52.0198 31.4093 50.4442 29.2082 48.9223 27.0885L46.1663 23.2554L45.4941 23.2971C42.6144 23.4595 36.8516 26.6098 31.5944 30.9012C28.5224 33.4089 26.9366 35.1946 24.5258 38.8886C21.4931 43.5338 21.0013 47.4431 23.0639 50.4158C23.6191 51.2107 24.9437 52.4892 25.8061 53.0703Z" fill="black"/>
<path id="Vector_3" d="M54.4786 51.5705C54.9877 51.76 57.4387 52.8385 59.9304 53.952C62.4133 55.0756 64.4715 55.9938 64.4992 55.9822C64.6127 55.9735 66.285 53.3251 66.7906 52.3448C68.8917 48.3319 69.3498 44.6058 68.0932 41.8476C67.0661 39.6047 64.8088 38.3211 62.2973 38.5696C58.0308 39.0088 54.6753 43.2886 53.5648 49.6899C53.4406 50.4319 53.3848 51.0735 53.4459 51.126C53.4968 51.1696 53.9681 51.362 54.4786 51.5705Z" fill="black"/>
<path id="Vector_4" d="M56.4051 31.5318C58.7774 30.8279 61.5838 29.3298 63.2261 27.9108C66.6782 24.8985 67.5049 20.5165 65.1469 17.6615C63.1145 15.2097 59.0872 14.9173 55.0553 16.9368C53.4425 17.7447 51.055 19.4962 49.3965 21.0781L48.8986 21.5346L51.195 25.0793C52.4565 27.0285 53.9448 29.3315 54.4782 30.2136L55.4752 31.812L56.4051 31.5318Z" fill="black"/>
</g>
</g>
<defs>
<clipPath id="clip0_201_399">
<rect width="68.6837" height="68.6837" fill="white" transform="translate(52.1162 96.8525) rotate(-139.357)"/>
</clipPath>
</defs>
</svg>
