<svg width="90" height="89" viewBox="0 0 90 89" fill="none" xmlns="http://www.w3.org/2000/svg">
<g id="footsteps-silhouette-variant 7" clip-path="url(#clip0_201_321)">
<g id="Group">
<path id="Vector" d="M49.3012 82.8046C51.9117 83.2248 54.5233 82.2099 56.5099 80.0095C58.0512 78.2998 59.1931 76.3949 60.8763 72.7296C62.1436 69.968 62.8234 67.2411 63.4047 62.6249C64.1197 57.0547 63.9291 52.3168 62.9447 50.1905L62.6635 49.6096L58.7063 49.1071C56.5394 48.8415 53.9253 48.5061 52.9165 48.3659C50.1269 47.9636 50.1269 47.9636 48.742 49.7903C45.7795 53.6861 42.8988 60.2688 42.1038 64.9184C41.587 68.0089 41.4384 70.6223 41.6522 73.0006C41.9866 76.6449 43.1752 79.3658 45.1685 81.0294C46.0096 81.7231 48.0649 82.6208 49.3012 82.8046Z" fill="black"/>
<path id="Vector_2" d="M25.4202 56.7117C26.8535 57.0567 28.8742 56.7641 30.6793 55.9445C33.4981 54.6496 36.3735 51.8116 39.1241 47.6054C40.6672 45.2504 41.3894 43.7312 42.6005 40.2879C44.0235 36.2507 44.5941 33.6975 44.754 30.7152C44.8543 28.9446 44.8184 28.8879 43.3338 27.8487C42.7518 27.4547 40.5239 25.917 38.3742 24.4378L34.4832 21.7642L33.8648 22.0311C31.2102 23.1588 26.8544 28.0742 23.3606 33.8922C21.3192 37.2919 20.4316 39.509 19.4139 43.8011C18.133 49.1987 18.9939 53.0437 21.9411 55.1424C22.7327 55.7024 24.412 56.4569 25.4202 56.7117Z" fill="black"/>
<path id="Vector_3" d="M51.8915 45.5924C52.4347 45.5983 55.106 45.7833 57.8275 45.9874C60.5443 46.204 62.7918 46.3711 62.8139 46.3508C62.9178 46.3042 63.5946 43.246 63.7384 42.1524C64.3567 37.6651 63.5263 34.004 61.41 31.8342C59.6842 30.0714 57.1256 29.628 54.8465 30.7121C50.9807 32.5699 49.2724 37.733 50.3949 44.1323C50.5292 44.8725 50.694 45.4951 50.7692 45.5238C50.8319 45.5476 51.3405 45.5691 51.8915 45.5924Z" fill="black"/>
<path id="Vector_4" d="M46.9196 26.0849C48.9133 24.6194 51.0468 22.2595 52.1117 20.3684C54.3399 16.3652 53.6342 11.9621 50.4488 10.074C47.7064 8.45518 43.8179 9.54354 40.7079 12.809C39.4639 14.1151 37.8104 16.5716 36.7855 18.6216L36.4715 19.2197L39.8324 21.7776C41.6794 23.1845 43.8596 24.8475 44.6601 25.497L46.1394 26.6634L46.9196 26.0849Z" fill="black"/>
</g>
</g>
<defs>
<clipPath id="clip0_201_321">
<rect width="68.6837" height="68.6837" fill="white" transform="translate(65 89) rotate(-159.147)"/>
</clipPath>
</defs>
</svg>
