<svg width="50" height="51" viewBox="0 0 50 51" fill="none" xmlns="http://www.w3.org/2000/svg">
<g id="ic:baseline-whatsapp">
<path id="Vector" d="M39.6874 10.9796C37.7774 9.05029 35.5024 7.52059 32.995 6.47972C30.4876 5.43885 27.7981 4.90766 25.0833 4.91712C13.7083 4.91712 4.43742 14.1879 4.43742 25.5629C4.43742 29.2088 5.39575 32.7504 7.18742 35.8754L4.27075 46.5838L15.2083 43.7088C18.2291 45.3546 21.6249 46.2296 25.0833 46.2296C36.4583 46.2296 45.7291 36.9588 45.7291 25.5838C45.7291 20.0629 43.5833 14.8754 39.6874 10.9796ZM25.0833 42.7296C21.9999 42.7296 18.9791 41.8963 16.3333 40.3338L15.7083 39.9588L9.20825 41.6671L10.9374 35.3338L10.5208 34.688C8.80772 31.9525 7.89813 28.7905 7.89575 25.5629C7.89575 16.1046 15.6041 8.39628 25.0624 8.39628C29.6458 8.39628 33.9583 10.188 37.1874 13.438C38.7863 15.0295 40.0535 16.9227 40.9153 19.0076C41.7772 21.0925 42.2167 23.3278 42.2083 25.5838C42.2499 35.0421 34.5416 42.7296 25.0833 42.7296ZM34.4999 29.8963C33.9791 29.6463 31.4374 28.3963 30.9791 28.2088C30.4999 28.0421 30.1666 27.9588 29.8124 28.4588C29.4583 28.9796 28.4791 30.1463 28.1874 30.4796C27.8958 30.8338 27.5833 30.8754 27.0624 30.6046C26.5416 30.3546 24.8749 29.7921 22.9166 28.0421C21.3749 26.6671 20.3541 24.9796 20.0416 24.4588C19.7499 23.9379 19.9999 23.6671 20.2708 23.3963C20.4999 23.1671 20.7916 22.7921 21.0416 22.5004C21.2916 22.2088 21.3958 21.9796 21.5624 21.6463C21.7291 21.2921 21.6458 21.0005 21.5208 20.7505C21.3958 20.5005 20.3541 17.9588 19.9374 16.9171C19.5208 15.9171 19.0833 16.0421 18.7708 16.0213H17.7708C17.4166 16.0213 16.8749 16.1463 16.3958 16.6671C15.9374 17.1879 14.6041 18.4379 14.6041 20.9796C14.6041 23.5213 16.4583 25.9796 16.7083 26.3129C16.9583 26.6671 20.3541 31.8754 25.5208 34.1046C26.7499 34.6463 27.7083 34.9588 28.4583 35.1879C29.6874 35.5838 30.8124 35.5213 31.7083 35.3963C32.7083 35.2504 34.7708 34.1463 35.1874 32.9379C35.6249 31.7296 35.6249 30.7088 35.4791 30.4796C35.3333 30.2504 35.0208 30.1463 34.4999 29.8963Z" fill="black"/>
</g>
</svg>
