<svg width="52" height="52" viewBox="0 0 52 52" fill="none" xmlns="http://www.w3.org/2000/svg">
<g id="ri:linkedin-fill">
<path id="Vector" d="M8.74756 11.3752C8.747 12.5023 8.29869 13.5831 7.50126 14.3798C6.70383 15.1764 5.6226 15.6236 4.49543 15.623C3.36826 15.6225 2.28748 15.1742 1.49085 14.3767C0.694221 13.5793 0.246996 12.4981 0.247559 11.3709C0.248123 10.2438 0.69643 9.16297 1.49386 8.36634C2.29129 7.56971 3.37251 7.12248 4.49968 7.12305C5.62685 7.12361 6.70763 7.57192 7.50427 8.36935C8.3009 9.16677 8.74812 10.248 8.74756 11.3752ZM8.87506 18.7702H0.375059V45.3752H8.87506V18.7702ZM22.3051 18.7702H13.8476V45.3752H22.2201V31.4139C22.2201 23.6364 32.3563 22.9139 32.3563 31.4139V45.3752H40.7501V28.5239C40.7501 15.4127 25.7476 15.9014 22.2201 22.3402L22.3051 18.7702Z" fill="black"/>
</g>
</svg>
