<svg width="109" height="24" viewBox="0 0 109 24" fill="none" xmlns="http://www.w3.org/2000/svg">
<g id="rupay 1" clip-path="url(#clip0_545_142)">
<path id="Vector" d="M103.125 1.7666L108.272 12.0001L97.4451 22.2488L103.125 1.7666Z" fill="#018C45"/>
<path id="Vector_2" d="M99.5467 1.7666L104.694 12.0001L93.8665 22.2488L99.5467 1.7666Z" fill="#F47920"/>
<path id="Vector_3" d="M25.2775 7.96447L27.775 7.96447C28.6582 7.96447 29.2978 7.84264 29.6937 7.58376C30.0897 7.32487 30.3942 6.88325 30.5618 6.24365C30.7445 5.58883 30.6988 5.14721 30.4399 4.88833C30.181 4.62944 29.5567 4.50762 28.5821 4.50762L26.2217 4.50762L25.2775 7.96447ZM16.9019 18.5178L22.0491 0L30.2724 0C32.846 0 34.5516 0.411169 35.4348 1.24873C36.3029 2.0863 36.4704 3.44163 35.9526 5.34518C35.6328 6.47208 35.1607 7.41624 34.4907 8.16244C33.8359 8.90863 32.9678 9.50254 31.9171 9.92894C32.8156 10.1421 33.3942 10.5685 33.6531 11.2234C33.912 11.8629 33.8815 12.8071 33.5618 14.0406L32.9374 16.6294V16.7056C32.7546 17.4366 32.8156 17.8173 33.1049 17.8477L32.9222 18.533L27.3638 18.533C27.379 18.0914 27.4247 17.7107 27.4552 17.3756C27.5008 17.0406 27.5465 16.7817 27.5922 16.599L28.11 14.7563C28.3689 13.797 28.3841 13.1269 28.1404 12.731C27.8968 12.335 27.3486 12.1371 26.4805 12.1371L24.1506 12.1371L22.3384 18.5178L16.9019 18.5178ZM51.181 4.85787L47.3892 18.5178L42.7902 18.5178L43.3536 16.5228C42.5465 17.3147 41.709 17.9239 40.8714 18.3046C40.0491 18.7005 39.1658 18.8985 38.2521 18.8985C37.4907 18.8985 36.8359 18.7614 36.3181 18.4873C35.7851 18.2132 35.3892 17.802 35.1151 17.2538C34.8714 16.7817 34.78 16.1878 34.8105 15.4721C34.8562 14.7716 35.0998 13.599 35.5567 11.9543L37.5211 4.85787L42.5618 4.85787L40.5973 11.9086C40.3079 12.9442 40.247 13.6751 40.3841 14.0558C40.5364 14.4518 40.9171 14.665 41.5414 14.665C42.181 14.665 42.714 14.4366 43.1557 13.9645C43.5973 13.4924 43.9475 12.8071 44.2064 11.8782L46.1557 4.84264L51.181 4.84264V4.85787ZM57.6836 8.32995L59.4653 8.32995C60.6074 8.32995 61.4145 8.19289 61.8866 7.91878C62.3435 7.64467 62.6633 7.14213 62.8612 6.44162C63.0592 5.72589 63.0135 5.23858 62.709 4.96447C62.4196 4.69036 61.6887 4.5533 60.5008 4.5533L58.7343 4.5533L57.6836 8.32995ZM49.3536 18.5178L54.4856 0L61.5516 0C63.1049 0 64.3232 0.091372 65.176 0.289342C66.0288 0.487311 66.714 0.791879 67.2013 1.2335C67.8257 1.81218 68.2064 2.52792 68.3739 3.39594C68.5262 4.24873 68.4348 5.25381 68.115 6.44162C67.5364 8.51269 66.5313 10.0964 65.0998 11.2081C63.6531 12.3046 61.8714 12.8528 59.7546 12.8528L56.4501 12.8528L54.8663 18.5178L49.3536 18.5178ZM75.2572 12.4112C74.7242 12.6244 74.0237 12.8376 73.1709 13.0508C71.8156 13.4162 71.0541 13.9036 70.8866 14.4975C70.7648 14.8782 70.8257 15.1827 71.0084 15.4112C71.1912 15.6244 71.511 15.731 71.9678 15.731C72.8054 15.731 73.4755 15.5178 73.978 15.1066C74.4805 14.6802 74.8612 14.0254 75.1201 13.1117C75.1658 12.9137 75.2115 12.7767 75.2267 12.6701L75.2572 12.4112ZM74.0389 18.5178L74.0846 17.2234C73.2775 17.8325 72.4551 18.2893 71.6176 18.5787C70.7952 18.868 69.912 19.0203 68.9831 19.0203C67.5516 19.0203 66.5617 18.6396 65.9831 17.8782C65.4196 17.132 65.3282 16.0508 65.709 14.665C66.0744 13.3096 66.7445 12.3046 67.6887 11.665C68.6328 11.0254 70.2166 10.5533 72.4399 10.264C72.714 10.2183 73.0947 10.1878 73.5668 10.1269C75.2115 9.94416 76.1252 9.50254 76.3232 8.7868C76.4298 8.39087 76.3689 8.10152 76.1252 7.93401C75.8968 7.75127 75.4551 7.6599 74.8308 7.6599C74.313 7.6599 73.8866 7.7665 73.5364 7.99492C73.1861 8.22335 72.9272 8.55838 72.7597 9.03046L67.8562 9.03046C68.2978 7.49239 69.2115 6.33503 70.5668 5.55838C71.9222 4.7665 73.7039 4.38579 75.9272 4.38579C76.9628 4.38579 77.9069 4.47716 78.7293 4.69036C79.5516 4.88833 80.1607 5.17767 80.5414 5.52792C81.0288 5.96954 81.3029 6.45685 81.3942 7.00508C81.4856 7.5533 81.379 8.34518 81.1049 9.36548L78.9881 16.9797C78.9272 17.2234 78.912 17.4518 78.9425 17.6497C78.9881 17.8477 79.0643 18.0152 79.2166 18.1218L79.11 18.5025L74.0389 18.5025V18.5178ZM79.1404 23.9086L80.2521 19.8579H81.6988C82.1861 19.8579 82.5516 19.7665 82.8257 19.5838C83.0998 19.401 83.2826 19.0964 83.3892 18.6853C83.4501 18.5025 83.4805 18.3198 83.4958 18.1066C83.511 17.8782 83.511 17.6345 83.4958 17.3604L82.7191 4.84264L87.8206 4.84264L87.7445 13.1269L92.1912 4.84264L96.9272 4.84264L89.0541 18.4416C88.1557 19.9645 87.5161 21 87.1049 21.5787C86.6937 22.1421 86.313 22.5838 85.9323 22.8731C85.445 23.2843 84.912 23.5736 84.3181 23.7411C83.7242 23.9086 82.8409 24 81.6379 24C81.2876 24 80.8917 24 80.4653 23.9695C80.0541 23.9695 79.5973 23.9391 79.1404 23.9086Z" fill="#29387E"/>
</g>
<defs>
<clipPath id="clip0_545_142">
<rect width="108.279" height="-24" fill="white" transform="matrix(-1 0 0 -1 108.279 0)"/>
</clipPath>
</defs>
</svg>
