<svg width="218" height="218" viewBox="0 0 218 218" fill="none" xmlns="http://www.w3.org/2000/svg">
<path id="Vector" d="M81.917 80.0212V137.98C81.917 142.313 83.8128 145.473 87.6045 147.459C91.3961 149.445 95.0975 149.264 98.7087 146.917L143.667 118.209C147.098 116.223 148.813 113.153 148.813 109C148.813 104.848 147.098 101.778 143.667 99.792L98.7087 71.0837C95.0975 68.7364 91.3961 68.5559 87.6045 70.542C83.8128 72.5281 81.917 75.6878 81.917 80.0212ZM109 217.334C94.0142 217.334 79.9309 214.492 66.7503 208.808C53.5698 203.124 42.1045 195.403 32.3545 185.646C22.6045 175.896 14.8875 164.431 9.20366 151.25C3.51977 138.07 0.674214 123.986 0.666992 109C0.666992 94.0142 3.51255 79.9309 9.20366 66.7503C14.8948 53.5698 22.6117 42.1045 32.3545 32.3545C42.1045 22.6045 53.5698 14.8839 66.7503 9.19284C79.9309 3.50172 94.0142 0.659784 109 0.667006C123.986 0.667006 138.07 3.51256 151.25 9.20367C164.431 14.8948 175.896 22.6117 185.646 32.3545C195.396 42.1045 203.117 53.5698 208.808 66.7503C214.499 79.9309 217.341 94.0142 217.334 109C217.334 123.986 214.488 138.07 208.797 151.25C203.106 164.431 195.389 175.896 185.646 185.646C175.896 195.396 164.431 203.117 151.25 208.808C138.07 214.499 123.986 217.341 109 217.334ZM109 195.667C133.014 195.667 153.464 187.228 170.349 170.35C187.235 153.471 195.674 133.021 195.667 109C195.667 84.9864 187.228 64.5367 170.349 47.6512C153.471 30.7656 133.021 22.3264 109 22.3337C84.9864 22.3337 64.5367 30.7728 47.6512 47.6512C30.7656 64.5295 22.3264 84.9792 22.3337 109C22.3337 133.014 30.7728 153.464 47.6512 170.35C64.5295 187.235 84.9792 195.674 109 195.667Z" fill="white"/>
</svg>
