<svg width="75" height="24" viewBox="0 0 75 24" fill="none" xmlns="http://www.w3.org/2000/svg">
<g id="Visa_Inc._logo 1" clip-path="url(#clip0_545_128)">
<g id="g4158">
<path id="polygon9" d="M32.4998 23.6535H26.4243L30.2244 0.420898H36.2996L32.4998 23.6535Z" fill="#00579F"/>
<path id="path11" d="M54.5242 0.989106C53.3259 0.519026 51.4252 0 49.075 0C43.0752 0 38.8502 3.16343 38.8243 7.68618C38.7744 11.0231 41.8492 12.8764 44.149 13.9891C46.4995 15.126 47.2985 15.8681 47.2985 16.8815C47.2746 18.4379 45.3991 19.1553 43.6499 19.1553C41.2243 19.1553 39.9246 18.7854 37.9495 17.9195L37.1495 17.5483L36.2993 22.7635C37.7243 23.4054 40.3496 23.975 43.0752 24C49.4501 24 53.6003 20.8855 53.6495 16.0658C53.6737 13.4211 52.0501 11.3946 48.5497 9.73863C46.4247 8.67561 45.1234 7.95883 45.1234 6.87118C45.1483 5.8824 46.2241 4.86964 48.6228 4.86964C50.5979 4.82004 52.0491 5.28946 53.1485 5.75921L53.698 6.00591L54.5242 0.989106Z" fill="#00579F"/>
<path id="path13" d="M62.5991 15.423C63.0994 14.0884 65.0247 8.92274 65.0247 8.92274C64.9994 8.97234 65.524 7.56341 65.824 6.69848L66.2486 8.70034C66.2486 8.70034 67.3991 14.2615 67.649 15.423C66.6995 15.423 63.7991 15.423 62.5991 15.423ZM70.0985 0.420898H65.3991C63.9499 0.420898 62.8489 0.840718 62.2236 2.34852L53.1992 23.6532H59.5741C59.5741 23.6532 60.6236 20.7858 60.8492 20.1682C61.5485 20.1682 67.75 20.1682 68.6497 20.1682C68.8241 20.9838 69.3746 23.6532 69.3746 23.6532H74.9999L70.0985 0.420898Z" fill="#00579F"/>
<path id="path15" d="M21.3498 0.420898L15.3999 16.2633L14.7497 13.0503C13.6497 9.34288 10.1998 5.31485 6.34985 3.312L11.7998 23.6289H18.2245L27.7742 0.420898H21.3498Z" fill="#00579F"/>
<path id="path17" d="M9.87493 0.420898H0.100001L0 0.890321C7.62506 2.81827 12.675 7.46552 14.7498 13.0513L12.6248 2.37381C12.275 0.889992 11.1999 0.469845 9.87493 0.420898Z" fill="#FAA61A"/>
</g>
</g>
<defs>
<clipPath id="clip0_545_128">
<rect width="75" height="24" fill="white"/>
</clipPath>
</defs>
</svg>
